<?xml version="1.0" standalone="no"?>
<!DOCTYPE svg PUBLIC "-//W3C//DTD SVG 20010904//EN"
 "http://www.w3.org/TR/2001/REC-SVG-20010904/DTD/svg10.dtd">
<svg version="1.0" xmlns="http://www.w3.org/2000/svg"
 width="123.000000pt" height="123.000000pt" viewBox="0 0 123.000000 123.000000"
 preserveAspectRatio="xMidYMid meet">
<metadata>
Created by potrace 1.14, written by Peter Selinger 2001-2017
</metadata>
<g transform="translate(0.000000,123.000000) scale(0.100000,-0.100000)"
fill="#000000" stroke="none">
<path d="M677 1104 c-26 -6 -63 -19 -80 -28 -29 -13 -38 -13 -72 -1 -67 24
-134 19 -201 -15 -71 -35 -96 -67 -68 -87 10 -7 30 -13 44 -13 31 0 49 -13 79
-57 12 -18 33 -36 47 -39 14 -4 24 -13 24 -23 0 -16 -5 -16 -50 -7 -71 14
-164 -4 -264 -52 -115 -56 -130 -69 -128 -121 14 -352 368 -623 712 -546 94
21 83 22 159 -10 62 -26 148 -35 207 -21 34 7 104 45 104 56 0 5 -14 24 -31
41 -36 36 -89 117 -89 134 0 7 18 31 40 54 73 76 120 199 120 309 -1 181 -125
353 -298 414 -69 24 -188 30 -255 12z m214 -50 c30 -9 67 -23 84 -33 59 -32
133 -112 166 -179 29 -58 33 -79 36 -154 3 -119 -17 -178 -94 -274 -53 -68
-181 -132 -275 -138 -119 -8 -223 41 -336 157 -161 167 -168 174 -218 191 -27
9 -78 19 -114 22 -36 3 -71 7 -77 9 -24 8 -1 35 55 65 118 64 219 84 303 58
32 -9 41 -17 49 -47 13 -47 13 -77 -1 -103 -8 -16 -8 -24 3 -34 12 -13 22 -10
72 15 l58 29 43 -24 c33 -19 42 -29 38 -44 -7 -27 23 -37 47 -15 26 23 58 12
58 -21 0 -14 3 -28 6 -32 13 -12 41 15 38 37 -2 11 0 21 5 22 4 0 18 2 30 5
12 2 29 -3 38 -12 21 -21 49 -10 42 17 -4 13 0 22 11 26 40 15 91 56 107 87
35 64 2 128 -91 176 -31 15 -41 26 -37 39 7 27 -14 35 -42 17 -36 -24 -55 -20
-55 9 0 29 -27 45 -41 24 -5 -8 -8 -29 -6 -48 3 -33 5 -34 80 -56 120 -34 183
-98 144 -145 -35 -44 -140 -90 -203 -90 -38 0 -117 25 -151 47 -22 15 -22 16
-6 46 9 18 19 61 22 97 6 64 6 65 34 62 32 -3 46 20 27 43 -16 19 -43 19 -81
0 -28 -15 -29 -18 -28 -80 2 -73 -16 -112 -68 -153 l-33 -25 0 27 c0 14 -7 53
-17 86 -14 50 -14 64 -3 84 15 29 10 48 -15 52 -50 7 -66 18 -95 59 -21 30
-38 45 -53 45 -19 0 -20 1 -6 16 25 25 119 30 176 9 47 -17 51 -17 84 0 86 45
198 56 290 29z m-638 -483 c28 -14 71 -51 114 -99 117 -132 186 -187 281 -222
32 -12 69 -34 85 -50 l27 -28 -44 -11 c-205 -51 -456 54 -573 242 -40 63 -73
144 -73 180 0 18 6 19 69 15 42 -3 86 -13 114 -27z m782 -301 c3 -11 24 -43
46 -72 l40 -53 -48 -11 c-26 -6 -68 -9 -93 -7 -48 4 -156 51 -183 80 -15 17
-13 18 20 20 45 3 170 40 178 53 10 17 33 11 40 -10z"/>
<path d="M782 809 c-31 -12 -55 -70 -43 -103 11 -28 47 -56 73 -56 47 0 88 42
88 90 0 26 -40 69 -70 74 -14 2 -35 0 -48 -5z m62 -62 c8 -13 6 -21 -7 -34
-13 -13 -21 -15 -34 -7 -24 15 -26 29 -7 48 19 19 33 17 48 -7z"/>
<path d="M335 694 c-15 -15 -15 -18 1 -35 13 -14 21 -16 35 -8 23 12 25 45 3
53 -21 8 -20 8 -39 -10z"/>
</g>
</svg>
