<?xml version="1.0" standalone="no"?>
<!DOCTYPE svg PUBLIC "-//W3C//DTD SVG 20010904//EN"
 "http://www.w3.org/TR/2001/REC-SVG-20010904/DTD/svg10.dtd">
<svg version="1.0" xmlns="http://www.w3.org/2000/svg"
 width="512.000000pt" height="512.000000pt" viewBox="0 0 512.000000 512.000000"
 preserveAspectRatio="xMidYMid meet">
<metadata>
Created by potrace 1.14, written by Peter Selinger 2001-2017
</metadata>
<g transform="translate(0.000000,512.000000) scale(0.100000,-0.100000)"
fill="#000000" stroke="none">
<path d="M1736 4678 c5 -8 0 -9 -15 -5 -15 3 -24 0 -28 -9 -3 -8 -12 -13 -20
-10 -10 4 -9 -1 4 -19 11 -15 25 -23 36 -21 19 5 24 -10 5 -17 -7 -3 -3 -4 9
-4 12 1 20 4 17 8 -2 4 0 11 6 14 6 4 9 2 8 -3 -2 -5 18 -33 44 -60 29 -32 42
-53 35 -56 -7 -3 -3 -4 8 -3 11 2 19 9 17 16 -1 7 -3 28 -4 47 -1 19 -7 35
-16 39 -8 3 -11 12 -8 20 3 9 0 15 -9 15 -8 0 -15 7 -15 16 0 8 -4 12 -10 9
-5 -3 -10 -1 -10 5 0 7 -7 9 -15 6 -9 -3 -18 1 -21 9 -4 8 -10 15 -16 15 -5 0
-6 -5 -2 -12z m71 -105 c0 -9 -4 -10 -14 -2 -7 6 -13 12 -13 14 0 1 6 2 13 2
8 0 14 -6 14 -14z"/>
<path d="M1920 4671 c0 -5 -10 -8 -22 -6 -23 4 -23 4 -3 -12 16 -12 16 -14 3
-10 -10 3 -20 2 -23 -3 -4 -6 -2 -10 3 -10 5 0 8 -15 7 -34 -1 -27 2 -32 17
-28 10 2 18 9 18 14 0 5 5 6 11 3 6 -4 9 0 7 11 -2 11 2 18 8 17 17 -3 11 31
-8 51 -10 10 -18 13 -18 7z m30 -31 c0 -5 -5 -10 -11 -10 -5 0 -7 5 -4 10 3 6
8 10 11 10 2 0 4 -4 4 -10z"/>
<path d="M2102 4643 c-12 -2 -20 -8 -17 -13 3 -5 1 -11 -5 -15 -5 -3 -10 -1
-10 4 0 6 -5 11 -11 11 -5 0 -7 -4 -4 -10 3 -5 1 -10 -5 -10 -6 0 -8 -4 -5
-10 3 -5 -1 -10 -10 -10 -8 0 -19 -8 -22 -17 -4 -10 -17 -29 -29 -42 -25 -27
-23 -41 7 -41 13 0 19 7 20 23 0 12 3 17 5 10 3 -7 12 -9 20 -6 13 5 13 7 2
14 -10 7 -9 9 5 10 9 1 22 2 28 3 5 0 20 10 32 22 12 11 30 23 40 27 17 6 17
8 1 32 -9 14 -17 24 -18 24 0 -1 -11 -4 -24 -6z m-7 -73 c-3 -5 -12 -10 -18
-10 -7 0 -6 4 3 10 19 12 23 12 15 0z m-105 -60 c0 -5 -5 -10 -11 -10 -5 0 -7
5 -4 10 3 6 8 10 11 10 2 0 4 -4 4 -10z"/>
<path d="M1482 4555 c2 -17 -2 -19 -26 -17 -21 3 -26 0 -20 -9 5 -9 2 -11 -9
-6 -12 4 -17 1 -17 -10 0 -13 -2 -14 -17 -2 -15 12 -16 12 -10 -3 4 -12 2 -18
-8 -18 -8 0 -15 -4 -15 -10 0 -5 -5 -10 -11 -10 -5 0 -7 5 -4 10 10 16 -1 11
-16 -7 -10 -11 -10 -14 -1 -9 6 4 12 3 12 -2 0 -11 -30 -26 -44 -23 -5 1 -3
-6 5 -15 8 -10 9 -15 3 -11 -6 3 -18 -7 -27 -23 -16 -27 -16 -29 -1 -38 22
-12 56 -3 47 12 -4 6 2 4 12 -4 11 -9 16 -10 11 -2 -4 6 -3 12 3 12 5 0 9 -15
8 -34 -1 -24 -6 -32 -16 -28 -11 4 -13 0 -8 -17 3 -13 0 -24 -7 -27 -14 -5
-15 -39 -1 -51 4 -5 5 -2 0 6 -5 9 -4 12 3 7 6 -4 9 -13 5 -21 -4 -11 2 -15
22 -15 18 0 24 -4 19 -12 -5 -9 -2 -9 9 1 9 7 17 10 17 6 0 -5 8 0 19 9 10 9
28 18 39 19 13 1 18 6 14 16 -3 9 -1 12 6 7 7 -4 12 -2 12 3 0 6 3 10 8 10 4
-1 14 -1 22 0 13 1 13 2 0 12 -12 9 -11 10 7 6 16 -4 24 1 28 15 5 15 10 17
21 7 11 -9 14 -8 14 3 0 8 7 15 15 15 8 0 12 -4 9 -9 -5 -7 18 -12 38 -9 5 0
7 -2 7 -7 -5 -30 3 -54 15 -49 11 4 13 1 9 -10 -4 -10 -2 -14 5 -9 6 3 14 1
18 -5 4 -8 3 -9 -4 -5 -7 4 -12 2 -12 -3 0 -6 5 -11 10 -11 6 0 10 -12 10 -26
0 -14 4 -23 10 -19 6 4 7 11 4 17 -4 6 -3 8 3 5 6 -4 9 -18 7 -33 -1 -17 2
-24 10 -21 9 4 12 -4 11 -24 -1 -19 2 -28 10 -25 6 2 12 -2 12 -10 0 -7 -5
-11 -11 -8 -6 3 -4 0 4 -8 8 -7 22 -22 30 -33 14 -19 14 -19 -4 -5 -18 14 -19
13 -13 -3 4 -10 7 -21 7 -23 0 -3 6 -2 13 1 6 4 3 -1 -8 -11 -17 -14 -17 -16
-2 -11 14 5 17 0 17 -28 0 -19 4 -35 9 -35 5 0 12 -7 15 -16 5 -14 4 -15 -9
-4 -13 11 -14 10 -9 -4 3 -9 10 -16 16 -16 5 0 6 -9 3 -20 -4 -13 -2 -20 7
-20 10 0 9 -3 -2 -10 -13 -8 -12 -10 3 -10 9 0 17 -5 17 -11 0 -5 -5 -7 -11
-3 -8 4 -8 0 0 -15 9 -15 9 -21 1 -21 -7 0 -5 -6 3 -15 10 -9 14 -28 11 -56
-4 -36 -2 -40 13 -35 16 6 16 6 0 -12 -22 -24 -21 -32 1 -33 12 0 9 -4 -9 -12
-15 -7 -27 -16 -27 -20 0 -5 -3 -12 -7 -15 -4 -4 -5 -1 -3 7 4 17 -55 23 -75
8 -8 -6 -5 -7 8 -2 16 5 17 4 8 -6 -10 -10 -17 -9 -35 7 -13 11 -18 12 -10 3
10 -14 7 -16 -26 -18 -20 -2 -45 -3 -54 -3 -11 1 -15 -5 -11 -16 4 -13 2 -12
-10 3 -10 12 -16 15 -17 7 0 -7 -4 -10 -10 -7 -5 3 -10 1 -10 -5 0 -6 -4 -9
-9 -5 -5 3 -12 1 -16 -5 -3 -5 -11 -10 -16 -10 -6 0 -7 5 -3 11 4 8 0 8 -15 0
-11 -7 -21 -17 -21 -23 0 -7 -5 -6 -15 2 -12 10 -15 9 -15 -6 0 -15 -2 -16 -9
-5 -6 9 -10 10 -12 2 -2 -6 -19 -12 -37 -14 -18 -1 -32 -8 -32 -14 0 -12 -19
-17 -47 -14 -6 1 -15 -4 -19 -10 -5 -8 -3 -9 6 -4 9 6 11 4 6 -4 -5 -7 -14
-10 -22 -7 -9 3 -14 -1 -15 -12 0 -11 -2 -12 -6 -4 -3 9 -10 7 -24 -9 -10 -12
-19 -17 -19 -10 0 6 -12 0 -27 -14 -16 -14 -34 -23 -40 -20 -7 2 -17 -5 -23
-16 -6 -11 -15 -17 -21 -14 -5 4 -8 2 -7 -3 2 -6 0 -10 -4 -11 -13 -2 -45 -36
-41 -43 2 -4 -4 -5 -13 -1 -11 4 -15 2 -11 -4 4 -6 -1 -17 -10 -24 -14 -12
-16 -12 -9 1 4 9 2 8 -7 -2 -8 -10 -18 -14 -22 -10 -5 4 -5 1 -1 -6 4 -7 1
-15 -9 -18 -9 -4 -14 -13 -10 -22 5 -13 3 -13 -12 -1 -11 9 -14 10 -9 2 4 -8
2 -13 -4 -13 -6 0 -8 -4 -5 -10 3 -5 -1 -10 -9 -10 -9 0 -16 -7 -16 -16 0 -8
-4 -12 -10 -9 -6 3 -7 -1 -4 -9 4 -11 0 -16 -12 -16 -16 0 -17 -2 -4 -10 13
-9 13 -10 0 -11 -8 -1 -19 -1 -23 0 -5 1 -5 -3 -2 -10 4 -6 -3 -17 -14 -26
-19 -12 -20 -17 -9 -31 7 -9 9 -13 3 -10 -5 3 -21 -5 -35 -18 -13 -13 -19 -24
-13 -24 6 0 14 6 16 13 4 9 6 9 6 -1 1 -7 -6 -15 -14 -18 -8 -4 -15 -13 -15
-21 0 -8 -4 -12 -8 -9 -8 5 -10 -1 -14 -44 -3 -22 -14 -27 -21 -7 -3 6 -5 3
-5 -8 -1 -34 -7 -53 -25 -73 -13 -14 -14 -21 -5 -30 9 -9 8 -12 -7 -12 -17 0
-18 -2 -5 -10 13 -9 13 -10 0 -10 -13 0 -13 -1 0 -10 10 -6 11 -10 3 -10 -7 0
-13 -10 -13 -23 0 -13 -5 -28 -10 -33 -6 -6 -12 -34 -14 -63 -3 -30 -9 -57
-13 -60 -5 -3 -9 -17 -9 -31 0 -14 -3 -31 -8 -38 -4 -6 -3 -12 3 -12 6 0 8 -7
5 -15 -5 -13 -9 -13 -23 -3 -14 12 -15 11 -2 -5 8 -10 16 -29 17 -42 2 -18 -1
-23 -14 -18 -14 4 -15 3 -2 -5 21 -15 22 -62 1 -55 -12 3 -11 0 3 -11 20 -16
20 -16 0 -17 -10 0 -13 -3 -6 -6 6 -2 9 -10 5 -16 -12 -19 -10 -241 2 -249 7
-5 7 -8 0 -8 -12 0 -13 -99 -2 -116 3 -6 3 -14 0 -18 -10 -10 -13 -37 -3 -31
4 3 10 -2 14 -10 3 -8 2 -14 -2 -14 -19 3 -26 -2 -13 -10 9 -6 14 -30 15 -70
0 -33 4 -61 8 -61 3 0 4 -9 1 -21 -4 -12 0 -25 8 -30 8 -5 10 -9 4 -9 -5 0
-11 -11 -11 -25 -1 -14 2 -25 8 -25 5 0 6 5 2 12 -4 7 -3 8 5 4 9 -6 9 -11 0
-22 -8 -10 -8 -14 0 -14 6 0 11 -5 11 -11 0 -5 -4 -8 -8 -5 -5 3 -9 -1 -9 -9
0 -8 5 -11 10 -8 6 4 8 -2 5 -15 -4 -12 -1 -25 4 -29 7 -4 8 -1 3 8 -5 8 -4
11 0 6 5 -4 10 -31 12 -59 2 -29 8 -55 14 -58 5 -4 11 -18 12 -31 0 -13 6 -27
12 -31 6 -5 5 -11 -5 -18 -13 -9 -8 -14 12 -11 4 0 5 -8 3 -19 -2 -11 4 -24
13 -30 10 -5 12 -10 5 -10 -7 0 -13 -8 -13 -17 0 -14 2 -15 9 -5 7 11 9 11 14
-2 4 -9 3 -15 -1 -13 -4 1 -7 0 -7 -3 0 -9 -30 -38 -36 -35 -3 2 -5 -14 -5
-35 0 -21 3 -37 7 -35 10 7 40 -31 32 -40 -5 -4 -2 -5 5 -1 7 4 10 12 7 17 -3
5 1 6 9 3 9 -3 16 -9 16 -13 0 -4 10 -8 22 -8 13 -1 24 -7 26 -13 2 -5 12 -10
22 -10 10 0 20 -7 24 -15 3 -9 12 -12 22 -8 11 4 15 2 11 -4 -4 -7 0 -10 10
-9 10 2 21 -1 24 -6 3 -5 20 -10 37 -10 23 -1 29 -4 23 -12 -7 -8 -4 -12 8
-12 12 0 17 6 14 16 -3 10 -1 10 7 -3 7 -11 20 -16 36 -13 16 3 27 0 31 -10 3
-9 13 -14 24 -11 10 3 24 -1 30 -9 9 -11 15 -12 28 -2 9 7 13 8 9 4 -13 -16
25 -35 46 -24 10 5 16 6 13 1 -3 -4 2 -15 11 -23 14 -13 15 -12 9 4 -6 16 -5
17 7 7 8 -7 28 -13 44 -13 23 -1 29 -5 25 -17 -3 -12 -2 -12 7 1 6 10 16 18
23 18 8 0 8 -3 -1 -9 -10 -6 -9 -10 7 -14 12 -3 21 0 21 5 0 7 5 7 13 1 6 -5
19 -9 27 -8 8 0 21 -6 28 -15 12 -13 13 -13 8 2 -3 12 -1 15 9 11 8 -3 12 -10
8 -17 -3 -6 -1 -6 8 1 16 15 33 17 24 3 -3 -5 -2 -10 4 -10 5 0 12 6 14 13 4
9 6 9 6 0 1 -7 6 -13 12 -13 5 0 7 6 3 13 -6 10 -4 10 7 0 7 -7 26 -13 41 -13
15 0 28 -4 28 -10 0 -5 5 -10 11 -10 5 0 7 4 4 10 -3 5 1 10 10 10 9 0 14 -4
11 -9 -3 -5 3 -11 14 -14 11 -3 23 0 27 5 3 6 1 8 -5 4 -6 -3 -13 -3 -16 2 -2
4 6 8 20 8 14 0 23 -5 20 -11 -2 -6 11 -10 37 -8 23 1 48 -3 56 -10 12 -9 13
-9 7 0 -5 9 0 12 18 11 15 -1 26 -9 26 -17 0 -11 5 -10 22 5 16 14 20 15 16 4
-5 -13 6 -16 66 -15 39 0 77 4 85 9 10 6 12 6 7 -2 -4 -7 -1 -12 9 -12 10 0
14 5 9 13 -6 9 -4 9 7 0 17 -17 63 -17 53 -1 -4 7 -3 8 4 4 19 -11 112 -24
106 -14 -3 4 -1 8 5 8 5 0 13 -5 16 -10 4 -6 11 -7 18 -3 17 10 57 10 57 0 0
-5 7 -4 15 3 11 9 15 9 15 1 0 -7 4 -10 9 -7 14 9 155 11 169 3 7 -5 12 -3 12
3 0 6 4 9 8 6 5 -3 20 1 35 9 15 8 29 10 32 4 4 -5 19 -2 37 7 16 9 27 11 24
6 -4 -6 -1 -14 5 -18 8 -4 9 -3 5 4 -5 8 4 12 28 12 20 0 36 5 36 11 0 6 7 3
16 -5 19 -19 31 -21 16 -3 -9 11 -3 13 30 14 22 0 44 7 49 14 7 11 9 9 9 -5 0
-20 0 -20 15 0 13 16 16 17 25 4 7 -11 10 -11 10 -2 0 7 5 10 10 7 6 -3 10 -2
10 3 0 4 16 8 35 7 20 -1 38 2 41 7 3 5 11 4 19 -2 10 -8 15 -8 21 1 4 8 3 9
-4 5 -7 -4 -12 -2 -12 3 0 6 9 11 20 11 11 0 20 -5 20 -11 0 -6 8 -3 17 7 10
9 19 12 21 6 1 -5 13 -7 24 -4 18 4 20 2 14 -13 -7 -18 -6 -18 14 0 11 10 23
15 27 12 3 -4 1 -7 -5 -7 -7 0 -12 -3 -12 -7 0 -5 21 -9 48 -11 26 -1 49 -7
50 -13 3 -6 10 -5 20 3 12 10 14 10 8 1 -7 -13 -1 -15 57 -15 15 -1 27 -5 27
-9 0 -5 5 -9 11 -9 5 0 7 5 4 10 -10 17 7 11 22 -7 12 -15 14 -15 10 -2 -3 9
1 16 9 16 7 0 11 -4 9 -8 -3 -4 9 -12 26 -18 28 -10 30 -9 18 6 -13 15 -12 15
9 4 12 -6 22 -9 22 -5 0 3 6 1 13 -5 8 -6 16 -8 20 -5 9 9 57 12 51 3 -3 -5 0
-9 5 -9 6 0 11 3 11 8 0 9 77 8 87 -1 11 -12 24 -7 17 6 -6 9 -5 9 8 0 8 -7
17 -10 20 -8 3 3 15 8 27 10 15 3 19 0 14 -8 -4 -7 0 -6 10 2 14 11 17 11 17
0 0 -10 2 -11 8 -2 4 6 23 10 41 8 20 -2 46 4 60 13 25 16 26 16 11 -3 -15
-19 -14 -19 11 -3 24 15 27 15 45 0 14 -14 16 -14 6 -1 -12 16 -13 16 91 22 9
1 17 8 17 17 0 12 2 12 9 2 6 -11 10 -10 15 4 5 14 9 15 15 6 6 -10 14 -7 34
8 15 12 27 16 27 10 0 -6 5 -8 10 -5 6 4 7 12 3 18 -4 7 2 5 12 -3 10 -8 16
-10 12 -4 -4 7 0 15 9 18 10 4 13 2 8 -6 -4 -7 -3 -8 4 -4 7 4 12 15 12 24 0
13 2 13 15 -4 13 -16 14 -17 9 -1 -4 10 -3 17 2 16 22 -4 35 2 28 13 -5 7 -2
9 9 5 12 -4 14 -2 10 10 -5 12 -3 14 8 8 12 -8 12 -6 1 8 -8 9 -11 21 -7 27 3
6 -3 10 -15 10 -14 0 -19 4 -14 12 5 8 2 9 -10 5 -10 -4 -20 -7 -22 -7 -3 0
-2 -5 2 -12 4 -7 3 -8 -5 -4 -6 4 -9 12 -6 17 4 5 2 9 -4 9 -5 0 -12 -6 -14
-12 -4 -10 -6 -10 -6 0 -1 6 -6 12 -12 12 -5 0 -7 -4 -4 -10 3 -5 1 -10 -4
-10 -6 0 -11 3 -11 8 0 4 -20 8 -45 9 -34 2 -44 -1 -39 -10 5 -9 3 -9 -7 0 -7
7 -30 13 -52 13 -21 0 -36 4 -33 8 3 5 -1 9 -9 9 -8 0 -12 -4 -9 -9 3 -4 0 -8
-5 -8 -6 0 -11 6 -11 13 0 8 -3 7 -10 -3 -8 -13 -11 -12 -24 5 -13 18 -15 19
-21 3 -6 -16 -8 -16 -22 -2 -13 13 -17 13 -24 2 -5 -7 -9 -8 -9 -3 0 12 -40
13 -57 2 -8 -5 -11 0 -8 14 4 21 4 21 -15 4 -12 -11 -20 -13 -20 -6 0 9 -5 9
-22 0 -20 -11 -21 -10 -11 2 11 13 3 15 -53 14 -46 -1 -68 3 -71 12 -3 7 -10
10 -16 6 -6 -3 -7 -1 -3 5 3 6 15 9 26 7 13 -3 17 1 13 11 -6 17 9 18 26 1 10
-10 11 -8 5 7 -6 16 -4 18 11 13 16 -7 16 -5 4 10 -8 9 -9 14 -2 10 14 -9 45
2 37 14 -3 5 7 9 21 9 14 0 24 4 20 9 -3 6 4 8 15 6 11 -2 18 0 15 6 -4 5 2 9
12 9 15 0 16 2 3 10 -12 8 -9 10 13 10 18 0 27 5 27 16 0 14 3 14 15 4 13 -11
14 -10 8 6 -6 17 -5 18 12 4 11 -9 16 -10 11 -2 -10 17 17 42 46 42 18 0 20 2
8 10 -15 9 -14 11 13 14 6 1 11 8 9 16 -3 11 -1 11 13 0 9 -7 15 -9 14 -4 -4
22 2 33 21 39 11 3 20 11 20 16 0 6 -5 7 -12 3 -7 -4 -8 -3 -4 4 4 6 14 8 23
5 9 -4 14 -2 10 3 -3 6 5 18 19 28 13 11 24 27 24 37 0 10 13 25 30 34 17 9
30 18 30 21 0 3 -4 2 -10 -1 -6 -3 -7 1 -4 9 3 9 10 14 15 11 4 -3 6 4 4 15
-3 15 1 20 18 20 18 0 19 2 7 10 -10 6 -11 10 -2 10 7 0 12 13 12 29 0 17 5
33 12 37 7 5 8 2 3 -7 -5 -8 -4 -11 1 -6 5 5 10 17 10 28 1 10 2 26 3 35 0 9
6 12 13 8 8 -5 9 -2 5 9 -3 10 -2 17 3 17 5 0 7 9 5 20 -2 12 2 23 9 26 9 4
12 16 9 35 -2 17 0 29 7 29 6 0 8 -6 4 -12 -4 -7 -3 -9 1 -5 15 13 17 57 3 57
-10 0 -10 2 0 9 7 4 14 22 14 39 1 18 6 32 12 32 7 0 7 3 1 8 -15 11 -19 46
-4 36 8 -5 10 -3 3 7 -10 17 -13 89 -3 83 4 -2 11 0 14 6 4 6 1 9 -6 8 -8 -2
-13 10 -15 30 -2 30 -1 31 13 15 11 -13 11 -11 -1 9 -18 31 -20 42 -6 33 6 -3
10 -1 10 4 0 6 -4 11 -9 11 -5 0 -10 26 -10 58 0 68 -3 85 -15 94 -5 3 -11 21
-12 40 -2 18 -4 38 -5 43 -1 6 2 19 7 30 7 18 6 19 -10 6 -15 -12 -17 -12 -14
0 2 8 8 17 13 21 6 5 5 8 -3 8 -7 0 -10 5 -7 10 3 6 1 10 -5 10 -6 0 -8 5 -5
10 3 5 2 10 -3 10 -6 0 -8 9 -5 20 3 11 0 20 -6 20 -6 0 -11 5 -11 11 0 5 5 7
12 3 7 -5 8 -3 2 7 -4 8 -9 20 -11 28 -1 8 -9 18 -17 23 -8 5 -13 15 -10 22 3
8 1 17 -5 21 -6 3 -11 17 -11 30 0 13 -7 28 -16 33 -11 6 -15 17 -11 31 3 11
2 19 -3 16 -4 -3 -11 2 -14 11 -3 8 -2 12 4 9 6 -3 10 -1 10 5 0 18 36 60 45
52 3 -4 6 -2 5 3 -5 23 1 46 10 40 9 -5 15 15 11 38 0 4 5 6 11 5 7 -2 12 5
10 15 -2 9 2 17 7 17 6 0 7 7 4 17 -4 10 -2 14 4 10 14 -9 23 15 18 43 -2 12
2 23 10 27 9 3 15 18 15 34 0 17 6 32 14 35 8 3 12 12 10 19 -3 7 -1 16 5 20
8 4 8 12 0 26 -12 23 -3 41 10 21 4 -7 8 11 9 40 2 63 5 78 16 97 6 9 5 12 -1
8 -6 -4 -11 4 -10 18 0 14 4 22 9 19 6 -4 6 1 0 12 -13 25 -12 37 6 50 12 9
12 13 2 19 -9 6 -11 4 -5 -6 5 -8 4 -11 -1 -6 -5 5 -10 31 -10 58 -1 44 0 47
13 32 8 -10 5 -1 -7 20 -16 27 -18 37 -8 37 9 0 9 3 2 8 -6 4 -10 21 -9 38 1
23 -2 31 -12 27 -16 -6 -14 18 2 29 6 5 3 8 -7 8 -9 0 -20 5 -24 12 -4 7 -3 8
4 4 7 -4 12 -1 12 9 0 10 -5 13 -12 9 -8 -5 -9 -2 -5 9 3 9 2 19 -4 22 -5 4
-6 11 -3 17 4 6 2 8 -4 4 -6 -3 -13 -2 -17 4 -4 7 -13 7 -26 0 -11 -6 -25 -8
-32 -4 -9 6 -9 4 1 -8 10 -13 10 -17 -3 -22 -8 -3 -15 -12 -15 -21 0 -8 -4
-15 -10 -15 -5 0 -10 -5 -10 -11 0 -5 6 -7 13 -4 6 4 3 -1 -7 -9 -11 -9 -16
-16 -10 -16 5 0 2 -5 -6 -10 -8 -5 -15 -15 -16 -22 -3 -35 -5 -39 -16 -32 -10
5 -10 4 -1 -6 10 -11 7 -18 -12 -36 -14 -13 -25 -27 -25 -31 0 -4 -18 -25 -40
-46 -22 -20 -40 -42 -40 -48 0 -5 -4 -7 -10 -4 -5 3 -10 1 -10 -5 0 -6 -4 -8
-10 -5 -5 3 -10 0 -10 -7 0 -14 -40 -44 -53 -40 -5 1 -6 -2 -2 -8 3 -6 11 -7
17 -4 7 4 8 2 4 -4 -4 -7 -13 -12 -21 -12 -7 0 -17 -9 -20 -20 -4 -12 -11 -17
-18 -14 -7 4 -9 4 -5 -1 9 -10 -10 -47 -21 -41 -4 3 -8 -7 -9 -22 -6 -74 -9
-93 -17 -100 -5 -4 -5 -1 -1 6 4 6 3 12 -2 12 -10 0 -10 -75 0 -85 4 -4 2 -17
-4 -28 -8 -16 -8 -19 4 -14 8 3 15 -1 15 -8 0 -7 -6 -11 -14 -8 -7 3 -13 -1
-13 -8 0 -10 -3 -10 -8 -3 -9 14 -82 23 -82 11 0 -5 -6 -4 -14 2 -10 9 -16 9
-21 1 -4 -6 -13 -9 -21 -6 -8 3 -17 -1 -20 -8 -3 -8 -16 -13 -28 -12 -16 2
-23 -2 -22 -13 1 -9 -6 -15 -16 -15 -10 1 -16 -3 -15 -10 1 -6 -4 -10 -10 -8
-7 1 -13 -5 -13 -13 0 -8 -7 -15 -16 -15 -14 0 -15 -2 -3 -17 13 -15 12 -15
-10 -4 -15 8 -21 9 -17 2 4 -6 3 -11 -3 -11 -6 0 -8 -6 -5 -14 3 -8 0 -17 -7
-22 -7 -4 -10 -3 -6 3 3 5 0 10 -7 10 -8 0 -12 -7 -9 -14 3 -8 0 -13 -8 -11
-8 2 -13 -3 -11 -9 1 -8 -8 -13 -22 -13 -14 0 -28 -4 -31 -10 -4 -6 1 -7 12
-4 15 5 15 4 3 -4 -10 -8 -19 -7 -29 1 -12 10 -13 9 -6 -2 6 -11 4 -13 -8 -8
-10 4 -17 0 -20 -11 -4 -15 -5 -15 -6 1 0 10 -5 16 -11 12 -5 -3 -6 -13 -3
-22 4 -11 3 -14 -5 -9 -8 5 -10 2 -6 -8 3 -9 10 -16 14 -16 5 0 11 -14 15 -30
4 -17 16 -35 28 -42 12 -6 29 -19 38 -30 9 -10 24 -18 32 -18 11 0 14 -6 10
-17 -5 -15 -3 -14 11 2 10 12 15 14 14 6 -2 -8 8 -18 22 -22 14 -4 19 -7 11
-8 -8 -1 -11 -4 -8 -7 4 -4 14 -1 24 7 9 8 14 9 10 3 -3 -6 8 -18 26 -28 24
-13 27 -13 13 -2 -11 9 -15 16 -9 16 7 0 18 -6 26 -14 11 -11 17 -12 27 -3 10
9 11 9 5 -1 -5 -10 -2 -13 12 -10 11 2 28 -4 39 -12 17 -14 18 -14 6 2 -11 14
-11 16 5 13 10 -1 17 -9 15 -16 -1 -9 3 -8 11 4 15 18 43 24 31 6 -4 -8 -1 -8
12 -2 11 5 36 9 57 8 36 -1 50 9 25 18 -7 2 1 4 17 4 17 0 24 -2 18 -4 -7 -3
-13 -9 -13 -15 0 -6 8 -4 18 5 10 10 22 14 25 10 4 -3 7 -1 7 5 0 6 9 9 20 7
13 -3 20 2 21 13 0 11 2 13 6 4 4 -10 8 -10 19 -1 17 14 25 9 27 -19 0 -11 4
-19 8 -16 4 2 10 0 14 -6 3 -5 -1 -10 -9 -10 -9 0 -16 -5 -16 -11 0 -5 4 -7
10 -4 5 3 10 2 10 -4 0 -5 3 -16 6 -25 4 -11 0 -16 -12 -17 -18 0 -17 -1 1 -9
11 -5 14 -9 7 -9 -9 -1 -10 -6 -3 -20 8 -14 7 -20 -5 -25 -13 -5 -12 -9 3 -33
14 -22 14 -25 2 -16 -13 10 -16 10 -16 -2 0 -8 5 -15 11 -15 7 0 7 -3 -1 -8
-6 -4 -13 -33 -14 -64 -2 -40 -6 -55 -15 -51 -9 3 -11 -2 -7 -18 4 -15 3 -20
-5 -15 -8 5 -10 2 -6 -8 3 -9 1 -16 -5 -16 -6 0 -10 -3 -10 -7 4 -25 -3 -43
-17 -43 -11 0 -14 -5 -10 -16 5 -12 2 -15 -10 -10 -12 4 -15 2 -10 -9 5 -14
-5 -20 -27 -16 -5 1 -6 -3 -2 -9 3 -5 -1 -13 -9 -16 -9 -3 -13 -10 -10 -15 3
-5 -6 -9 -21 -9 -14 0 -28 -6 -30 -12 -3 -7 -19 -14 -37 -15 -17 -1 -34 -6
-37 -11 -9 -12 -44 -9 -59 5 -10 10 -18 10 -34 2 -15 -8 -19 -8 -14 0 4 7 -1
11 -12 11 -11 0 -22 7 -26 15 -3 8 -12 12 -21 9 -9 -4 -15 0 -15 9 0 9 -5 19
-12 23 -7 5 -9 2 -4 -7 4 -8 1 -6 -7 3 -8 10 -17 15 -20 11 -4 -3 -7 1 -7 10
0 9 -11 24 -25 33 -14 9 -22 20 -19 25 3 5 -2 9 -11 9 -11 0 -15 5 -11 16 3 8
2 12 -4 9 -6 -3 -10 -1 -10 5 0 6 -4 9 -9 6 -5 -3 -12 1 -15 10 -3 8 -2 12 4
9 6 -3 7 1 4 9 -3 9 -13 16 -21 16 -8 0 -11 5 -8 10 4 6 -8 24 -25 41 -17 17
-25 29 -17 26 7 -3 14 1 14 8 0 8 -7 11 -15 7 -10 -3 -13 -1 -8 6 4 7 1 15 -8
18 -9 3 -16 13 -16 21 0 8 -7 22 -16 30 -8 9 -13 24 -11 34 3 10 2 18 -2 17
-19 -2 -31 3 -29 15 2 6 -4 10 -12 9 -8 -2 -12 0 -7 4 4 4 -1 17 -10 28 -17
20 -17 20 0 7 15 -12 17 -12 11 3 -3 9 -10 16 -15 16 -5 0 -9 9 -9 21 0 11 -4
17 -10 14 -9 -6 -15 16 -11 39 1 5 -4 4 -12 -3 -12 -9 -15 -9 -14 1 1 31 -4
48 -14 48 -5 0 -7 -5 -3 -12 4 -6 3 -8 -4 -5 -5 4 -8 16 -5 27 3 12 -1 22 -11
26 -9 3 -13 10 -10 15 3 5 0 9 -7 9 -7 0 -10 3 -6 6 3 3 -5 17 -19 31 -13 13
-24 29 -24 35 0 5 -7 7 -16 4 -14 -5 -15 -4 -4 9 9 11 9 15 1 15 -7 0 -9 5 -6
10 3 6 0 10 -8 10 -8 0 -17 9 -20 21 -3 11 -15 23 -26 26 -11 3 -18 9 -16 14
3 4 -4 13 -15 19 -11 6 -20 17 -20 25 0 8 -4 15 -8 15 -5 0 -17 7 -28 15 -19
15 -19 15 1 9 18 -5 18 -4 2 6 -9 6 -23 8 -30 4 -8 -6 -8 -3 1 9 12 14 11 16
-7 12 -11 -2 -24 1 -27 7 -4 7 -2 8 4 4 7 -4 12 -2 12 3 0 6 -7 11 -15 11 -9
0 -18 7 -21 15 -4 8 -10 12 -15 9 -5 -3 -9 1 -9 9 0 8 -9 17 -21 20 -11 3 -23
15 -26 26 -3 12 -12 21 -19 21 -8 0 -14 7 -14 16 0 8 -4 12 -10 9 -5 -3 -10
-1 -10 5 0 6 -4 8 -10 5 -5 -3 -10 2 -10 11 0 10 -3 15 -6 12 -3 -4 -14 2 -25
13 -11 11 -25 17 -31 13 -7 -4 -8 -3 -4 4 4 7 1 12 -9 12 -9 0 -14 4 -11 9 3
5 -1 12 -10 15 -10 4 -13 2 -8 -6 4 -7 3 -8 -4 -4 -7 4 -12 15 -12 24 0 15 -2
15 -10 2 -8 -13 -10 -12 -10 3 0 10 -4 15 -10 12 -5 -3 -10 -2 -10 2 0 5 -18
17 -40 27 -22 10 -37 22 -34 28 4 6 -2 6 -14 -1 -18 -9 -23 -8 -32 10 -7 11
-14 18 -17 15 -4 -3 -15 2 -26 11 -15 13 -18 14 -12 3 8 -13 6 -13 -8 -1 -9 7
-14 17 -11 22 3 5 -1 6 -9 3 -8 -3 -18 0 -22 6 -6 9 -10 9 -16 -1 -7 -11 -9
-10 -9 5 0 14 -6 17 -24 14 -16 -3 -27 0 -31 10 -3 8 -12 11 -20 8 -8 -3 -15
-2 -15 3 0 5 -10 7 -22 7 -31 -3 -43 5 -27 15 17 11 -34 4 -52 -7 -7 -4 -9 -3
-5 4 3 6 2 13 -3 16 -5 4 -12 2 -16 -4 -4 -7 -14 -6 -28 2 -27 15 -49 19 -42
8 7 -11 -22 -7 -32 5 -4 4 -2 5 6 0 10 -6 12 -4 7 4 -6 9 -13 8 -27 -5 -18
-16 -19 -16 -13 -1 4 12 1 17 -11 17 -10 0 -13 -4 -9 -12 6 -9 3 -9 -9 0 -9 8
-20 11 -25 8 -5 -3 -6 10 -3 32 4 20 6 48 5 62 -1 14 3 31 10 39 6 8 7 12 1 9
-6 -4 -10 9 -10 32 -1 21 3 36 7 34 5 -3 5 -11 2 -17 -4 -7 -3 -9 1 -4 5 4 10
39 11 78 2 54 6 73 20 83 16 12 16 14 -2 24 -10 6 -13 12 -6 12 6 0 12 9 12
21 0 11 4 18 9 14 5 -3 12 -1 15 4 4 5 1 13 -5 17 -8 5 -9 3 -4 -6 6 -9 4 -11
-4 -5 -9 5 -10 10 -2 18 6 6 11 19 11 28 0 9 7 19 15 23 8 3 15 11 15 18 0 9
-3 8 -10 -2 -6 -9 -10 -10 -10 -3 0 6 5 15 10 18 6 3 10 15 10 25 0 14 5 18
18 14 14 -5 14 -4 2 4 -12 9 -12 14 -1 36 8 14 19 22 25 19 6 -4 4 2 -4 12
-10 13 -11 16 -2 11 9 -6 12 -3 10 10 -2 12 2 18 10 16 8 -1 11 2 7 8 -3 5 -1
10 6 10 8 0 7 5 -2 17 -10 11 -10 14 -1 9 7 -4 12 -2 12 4 0 6 5 8 10 5 6 -3
10 4 10 16 0 19 2 20 17 8 15 -12 16 -12 10 4 -4 10 -3 16 2 12 5 -3 17 5 27
17 11 15 14 17 11 6 -8 -24 31 -25 40 -2 5 14 8 12 19 -7 8 -15 14 -18 14 -9
0 9 6 6 16 -10 11 -18 14 -20 10 -5 -6 20 -6 20 9 1 8 -11 15 -23 15 -28 0 -4
8 -8 18 -8 14 0 15 -2 2 -10 -9 -6 -10 -10 -3 -10 6 0 18 -3 27 -6 11 -4 16
-1 16 10 0 9 5 16 10 16 6 0 10 5 10 11 0 5 -4 7 -10 4 -6 -4 -10 8 -10 30 0
22 -4 34 -10 30 -5 -3 -10 -2 -10 4 0 5 6 12 13 14 7 3 4 6 -7 6 -11 1 -16 6
-13 15 3 8 -1 17 -10 20 -9 4 -13 14 -10 26 3 11 -2 25 -12 32 -15 12 -15 11
-1 -7 14 -19 14 -19 -2 -6 -10 7 -18 19 -18 27 0 7 -5 16 -12 20 -7 5 -8 3 -3
-5 6 -10 3 -11 -14 -2 -11 7 -21 14 -21 17 0 3 5 2 12 -2 7 -4 8 -3 4 5 -11
17 -118 10 -111 -7 3 -7 0 -10 -6 -7 -5 4 -17 1 -25 -6 -12 -10 -13 -9 -8 7 5
18 4 18 -11 -1 -16 -20 -19 -22 -56 -24 -11 0 -17 -5 -14 -11 6 -9 -16 -15
-39 -11 -5 1 -5 -6 -2 -16 4 -9 4 -14 1 -11 -4 4 -18 3 -32 -3 -16 -6 -22 -5
-18 1 3 6 -1 7 -9 4 -9 -3 -16 -10 -16 -15 0 -5 -5 -9 -11 -9 -5 0 -8 4 -5 9
3 5 -6 9 -19 9 -24 0 -24 -1 -8 -15 11 -9 12 -11 3 -7 -8 4 -24 14 -34 23 -11
9 -16 11 -13 4 5 -7 0 -9 -15 -5 -12 3 -17 7 -10 10 21 7 13 20 -10 14 -16 -4
-20 -2 -16 10 4 8 0 15 -8 16 -8 1 -21 3 -29 4 -9 1 -14 7 -11 14 3 8 -2 11
-14 9 -11 -2 -19 1 -17 8 1 6 -8 13 -20 15 -13 2 -23 8 -23 13 0 5 -5 9 -11 9
-5 0 -8 -4 -5 -8 2 -4 -5 -9 -17 -9 -17 -2 -19 0 -7 7 8 5 13 10 10 11 -3 0
-13 2 -23 4 -11 2 -15 -1 -10 -8 5 -9 3 -9 -8 0 -9 7 -20 9 -29 3 -9 -5 -19
-5 -27 2 -9 7 -13 7 -13 -2 0 -10 -3 -10 -15 0 -12 10 -16 9 -21 -5 -7 -17 -8
-17 -21 1 -14 18 -14 18 -11 -1z m-592 -1529 c0 -2 -7 -7 -16 -10 -8 -3 -12
-2 -9 4 6 10 25 14 25 6z m2208 -121 c-3 -3 -9 2 -12 12 -6 14 -5 15 5 6 7 -7
10 -15 7 -18z m1227 -284 c3 -5 2 -12 -3 -15 -5 -3 -9 1 -9 9 0 17 3 19 12 6z
m-551 -569 c3 -5 -1 -9 -9 -9 -8 0 -12 4 -9 9 3 4 7 8 9 8 2 0 6 -4 9 -8z
m-1790 -1290 c3 -5 -1 -9 -9 -9 -8 0 -12 4 -9 9 3 4 7 8 9 8 2 0 6 -4 9 -8z
m40 0 c3 -5 -1 -9 -9 -9 -8 0 -12 4 -9 9 3 4 7 8 9 8 2 0 6 -4 9 -8z m61 -2
c3 -5 1 -10 -4 -10 -6 0 -11 5 -11 10 0 6 2 10 4 10 3 0 8 -4 11 -10z m465 0
c0 -5 -5 -10 -11 -10 -5 0 -7 5 -4 10 3 6 8 10 11 10 2 0 4 -4 4 -10z m55 -8
c-3 -3 -11 0 -18 7 -9 10 -8 11 6 5 10 -3 15 -9 12 -12z"/>
<path d="M1160 4540 c-7 -4 -25 -6 -39 -4 -18 3 -22 2 -12 -5 17 -11 3 -19
-31 -17 -14 1 -24 -2 -22 -6 2 -3 0 -9 -6 -13 -5 -3 -10 0 -10 7 0 8 -3 9 -8
3 -10 -15 -68 -45 -74 -39 -3 2 -4 -7 -2 -21 2 -23 0 -25 -14 -13 -9 7 -14 8
-9 3 4 -4 -1 -17 -10 -27 -14 -15 -14 -19 -3 -16 8 2 14 -3 13 -9 -2 -7 0 -13
5 -14 4 0 17 -2 29 -3 17 -2 20 0 12 10 -7 9 -6 12 8 10 10 -2 21 4 24 13 3 9
15 16 25 16 10 0 18 5 17 11 -1 7 9 15 23 18 15 4 22 11 18 18 -5 8 -2 9 9 5
12 -4 17 -1 17 11 0 13 2 14 9 4 7 -11 9 -10 15 3 3 9 10 14 14 11 5 -3 14 6
20 19 12 27 4 39 -18 25z m5 -20 c3 -5 1 -10 -4 -10 -6 0 -11 5 -11 10 0 6 2
10 4 10 3 0 8 -4 11 -10z"/>
<path d="M1190 4520 c0 -5 5 -10 10 -10 6 0 10 5 10 10 0 6 -4 10 -10 10 -5 0
-10 -4 -10 -10z"/>
<path d="M2583 4513 c-27 -10 -11 -20 27 -18 22 1 37 -1 34 -6 -2 -4 -11 -6
-18 -3 -8 3 -17 1 -21 -5 -4 -7 4 -11 20 -11 20 0 26 -4 21 -15 -3 -8 -2 -14
2 -14 27 4 44 -3 38 -16 -3 -8 -2 -14 2 -14 18 3 46 -3 35 -8 -7 -2 -13 -9
-13 -14 0 -6 4 -8 10 -4 12 8 51 -26 43 -38 -3 -6 -1 -7 6 -3 6 4 9 12 6 17
-3 5 1 6 9 3 9 -3 13 -11 9 -17 -3 -6 -1 -7 5 -3 7 4 12 24 12 44 0 28 -3 33
-10 22 -8 -13 -10 -13 -10 1 0 23 -37 53 -67 55 -14 0 -28 5 -31 11 -6 8 -36
24 -52 27 -3 1 -11 5 -17 9 -8 5 -13 4 -13 -2 0 -6 -5 -11 -11 -11 -5 0 -7 5
-4 10 7 11 6 11 -12 3z m187 -87 c0 -6 -5 -3 -11 7 -6 9 -15 14 -21 11 -7 -4
-8 -2 -4 5 9 14 36 -3 36 -23z"/>
<path d="M2567 4258 c2 -5 11 -8 18 -8 9 0 12 -6 8 -17 -4 -11 -3 -14 5 -9 7
4 12 1 12 -9 0 -9 -4 -13 -10 -10 -5 3 -10 2 -10 -3 0 -6 6 -12 14 -15 9 -4
12 -14 9 -28 -4 -15 -3 -20 5 -15 12 7 14 -4 15 -61 0 -14 5 -19 13 -16 8 3
14 -1 14 -10 0 -9 8 -15 19 -14 12 1 17 6 13 16 -3 9 -1 12 6 7 18 -11 15 53
-4 71 -8 9 -13 21 -10 28 3 8 -2 16 -10 19 -8 3 -13 10 -12 15 2 5 0 8 -4 8
-11 -3 -37 37 -31 47 4 5 1 6 -5 2 -7 -4 -12 -3 -12 2 0 6 -11 9 -24 8 -13 0
-22 -4 -19 -8z"/>
<path d="M1205 4231 c6 -11 4 -13 -9 -8 -11 4 -15 3 -10 -4 3 -6 -3 -19 -15
-30 -12 -11 -18 -25 -15 -31 4 -7 2 -8 -5 -4 -6 4 -8 12 -5 18 4 7 2 8 -4 4
-7 -4 -12 -16 -12 -27 0 -10 -4 -19 -10 -19 -5 0 -10 -10 -10 -22 0 -19 -2
-20 -10 -8 -8 12 -10 9 -10 -12 0 -15 -5 -30 -12 -34 -7 -5 -8 -2 -3 7 5 8 4
11 -1 6 -5 -5 -9 -12 -9 -15 -1 -4 -7 -18 -14 -31 -16 -29 -23 -83 -10 -75 5
3 9 0 9 -5 0 -6 6 -10 13 -8 6 1 11 -4 9 -11 -1 -8 2 -11 8 -7 6 3 7 11 4 17
-5 7 -1 9 9 5 10 -3 17 -2 17 4 0 6 6 7 13 3 7 -5 6 0 -3 11 -14 17 -13 18 3
12 13 -5 17 -3 15 5 -3 7 2 19 9 27 8 7 12 20 9 27 -3 8 -1 14 4 14 5 0 6 7 3
17 -5 12 -3 14 7 8 10 -6 11 -4 4 6 -4 8 -10 23 -11 34 -2 15 -1 16 6 6 10
-16 20 -3 15 22 -1 12 2 17 10 14 7 -3 13 1 13 9 0 8 -5 14 -11 14 -6 0 -3 5
6 11 10 5 15 16 11 25 -3 9 0 14 7 12 7 -2 14 3 16 10 1 7 0 8 -3 2 -3 -7 -10
-7 -21 2 -13 11 -14 11 -7 -1z m-60 -211 c3 -5 1 -10 -4 -10 -6 0 -11 5 -11
10 0 6 2 10 4 10 3 0 8 -4 11 -10z m-94 -33 c-10 -9 -11 -8 -5 6 3 10 9 15 12
12 3 -3 0 -11 -7 -18z"/>
<path d="M2501 3414 c0 -11 3 -14 6 -6 3 7 2 16 -1 19 -3 4 -6 -2 -5 -13z"/>
<path d="M2850 3170 c0 -5 5 -10 11 -10 5 0 7 5 4 10 -3 6 -8 10 -11 10 -2 0
-4 -4 -4 -10z"/>
<path d="M4275 2839 c-4 -6 -5 -12 -2 -15 2 -3 7 2 10 11 7 17 1 20 -8 4z"/>
<path d="M635 1720 c3 -5 8 -10 11 -10 2 0 4 5 4 10 0 6 -5 10 -11 10 -5 0 -7
-4 -4 -10z"/>
</g>
</svg>
