<svg width="1512" height="8606" viewBox="0 0 1512 8606" fill="none" xmlns="http://www.w3.org/2000/svg">
<g opacity="0.5">
<g filter="url(#filter0_f_479_473)">
<ellipse cx="463.939" cy="8094.2" rx="408.405" ry="226.668" transform="rotate(22.3747 463.939 8094.2)" fill="#0034EB"/>
</g>
<g filter="url(#filter1_f_479_473)">
<ellipse cx="1052.14" cy="8567.73" rx="918.493" ry="283" transform="rotate(29.3952 1052.14 8567.73)" fill="#0A34CD"/>
</g>
<g filter="url(#filter2_f_479_473)">
<ellipse cx="382.292" cy="8557.03" rx="1384.58" ry="372.11" transform="rotate(23.3308 382.292 8557.03)" fill="#00F3F9"/>
</g>
<g filter="url(#filter3_f_479_473)">
<ellipse cx="795.498" cy="8580.34" rx="486.5" ry="121" fill="#81FFD9"/>
</g>
</g>
<g opacity="0.25">
<g filter="url(#filter4_f_479_473)">
<ellipse cx="835.334" cy="7121.88" rx="485.289" ry="322.882" fill="#FF4161"/>
</g>
<g filter="url(#filter5_f_479_473)">
<ellipse rx="238.39" ry="126.944" transform="matrix(0.995133 -0.0985424 0.234119 0.972208 700.473 7058.11)" fill="#FFB39B"/>
</g>
<g filter="url(#filter6_f_479_473)">
<ellipse rx="1029.54" ry="170.088" transform="matrix(0.998671 -0.0515343 0.124513 0.992218 501.355 7306.18)" fill="#FF90BA"/>
</g>
</g>
<g opacity="0.5">
<g filter="url(#filter7_f_479_473)">
<ellipse rx="295.694" ry="163.193" transform="matrix(-0.916929 0.39905 0.39905 0.916929 294.213 5476.21)" fill="#8349FF"/>
</g>
<g filter="url(#filter8_f_479_473)">
<path d="M64.0278 5493.11C21.6145 5473.53 5.71548 5449.07 -28.2965 5417.04C-93.951 5355.22 -105.758 5296.55 -174.838 5238.58C-315.791 5120.31 -137.895 5646.08 45.899 5654.85C161.438 5660.36 415.513 5530.98 302.409 5506.75C257.24 5497.07 230.461 5516.31 184.333 5513.84C136.727 5511.29 107.311 5513.1 64.0278 5493.11Z" fill="url(#paint0_linear_479_473)"/>
</g>
<g filter="url(#filter9_f_479_473)">
<path d="M545.237 5245.51C608.854 5214.15 661.917 5213.68 731.214 5243.86C871.597 5304.98 430.641 5604.73 427.141 5450.56C424.935 5353.35 463.979 5285.55 545.237 5245.51Z" fill="#0013FF"/>
</g>
</g>
<g opacity="0.5">
<g filter="url(#filter10_f_479_473)">
<ellipse cx="336.382" cy="611.203" rx="408.405" ry="226.668" transform="rotate(22.3747 336.382 611.203)" fill="#0034EB"/>
</g>
<g filter="url(#filter11_f_479_473)">
<ellipse cx="924.586" cy="1084.73" rx="918.493" ry="283" transform="rotate(29.3952 924.586 1084.73)" fill="#0A34CD"/>
</g>
<g filter="url(#filter12_f_479_473)">
<ellipse cx="254.739" cy="1074.03" rx="1384.58" ry="372.11" transform="rotate(23.3308 254.739 1074.03)" fill="#00F3F9"/>
</g>
<g filter="url(#filter13_f_479_473)">
<ellipse cx="667.945" cy="1097.34" rx="486.5" ry="121" fill="#81FFD9"/>
</g>
</g>
<g opacity="0.5">
<g filter="url(#filter14_f_479_473)">
<path d="M706.698 1789.69C295.031 1796.56 -208.867 1650.66 -344.495 1708.97C-587.326 1813.37 -195.48 2415.3 173.088 2498.45C518.937 2576.48 2208.01 1885.59 1580.38 1685.95C1246.47 1579.74 1057.05 1783.84 706.698 1789.69Z" fill="#280075"/>
</g>
<g filter="url(#filter15_f_479_473)">
<path d="M631.849 2028.05C220.182 2034.92 -283.715 1889.02 -419.343 1947.33C-662.175 2051.73 -270.329 2653.65 98.2393 2736.81C444.089 2814.84 2133.16 2123.95 1505.53 1924.31C1171.62 1818.1 982.198 2022.2 631.849 2028.05Z" fill="#CF00A3"/>
</g>
<g filter="url(#filter16_f_479_473)">
<path d="M935.78 2274.05C962.315 2160.37 265.473 1922 -104.938 1897.95C-475.35 1873.91 -211.793 2282.01 136.74 2365.81C426.833 2435.55 909.245 2387.73 935.78 2274.05Z" fill="#FF8993"/>
<path d="M935.78 2274.05C962.315 2160.37 265.473 1922 -104.938 1897.95C-475.35 1873.91 -211.793 2282.01 136.74 2365.81C426.833 2435.55 909.245 2387.73 935.78 2274.05Z" stroke="#FF1D74" stroke-width="40"/>
</g>
</g>
<defs>
<filter id="filter0_f_479_473" x="-273.535" y="7483.22" width="1474.95" height="1221.96" filterUnits="userSpaceOnUse" color-interpolation-filters="sRGB">
<feFlood flood-opacity="0" result="BackgroundImageFix"/>
<feBlend mode="normal" in="SourceGraphic" in2="BackgroundImageFix" result="shape"/>
<feGaussianBlur stdDeviation="175" result="effect1_foregroundBlur_479_473"/>
</filter>
<filter id="filter1_f_479_473" x="-10.1975" y="7803.79" width="2124.68" height="1527.88" filterUnits="userSpaceOnUse" color-interpolation-filters="sRGB">
<feFlood flood-opacity="0" result="BackgroundImageFix"/>
<feBlend mode="normal" in="SourceGraphic" in2="BackgroundImageFix" result="shape"/>
<feGaussianBlur stdDeviation="125" result="effect1_foregroundBlur_479_473"/>
</filter>
<filter id="filter2_f_479_473" x="-1247.71" y="7560.85" width="3260" height="1992.36" filterUnits="userSpaceOnUse" color-interpolation-filters="sRGB">
<feFlood flood-opacity="0" result="BackgroundImageFix"/>
<feBlend mode="normal" in="SourceGraphic" in2="BackgroundImageFix" result="shape"/>
<feGaussianBlur stdDeviation="175" result="effect1_foregroundBlur_479_473"/>
</filter>
<filter id="filter3_f_479_473" x="108.998" y="8259.34" width="1373" height="642" filterUnits="userSpaceOnUse" color-interpolation-filters="sRGB">
<feFlood flood-opacity="0" result="BackgroundImageFix"/>
<feBlend mode="normal" in="SourceGraphic" in2="BackgroundImageFix" result="shape"/>
<feGaussianBlur stdDeviation="100" result="effect1_foregroundBlur_479_473"/>
</filter>
<filter id="filter4_f_479_473" x="50.0444" y="6499" width="1570.58" height="1245.76" filterUnits="userSpaceOnUse" color-interpolation-filters="sRGB">
<feFlood flood-opacity="0" result="BackgroundImageFix"/>
<feBlend mode="normal" in="SourceGraphic" in2="BackgroundImageFix" result="shape"/>
<feGaussianBlur stdDeviation="150" result="effect1_foregroundBlur_479_473"/>
</filter>
<filter id="filter5_f_479_473" x="261.364" y="6732.45" width="878.218" height="651.31" filterUnits="userSpaceOnUse" color-interpolation-filters="sRGB">
<feFlood flood-opacity="0" result="BackgroundImageFix"/>
<feBlend mode="normal" in="SourceGraphic" in2="BackgroundImageFix" result="shape"/>
<feGaussianBlur stdDeviation="100" result="effect1_foregroundBlur_479_473"/>
</filter>
<filter id="filter6_f_479_473" x="-827.044" y="6829.22" width="2656.8" height="953.911" filterUnits="userSpaceOnUse" color-interpolation-filters="sRGB">
<feFlood flood-opacity="0" result="BackgroundImageFix"/>
<feBlend mode="normal" in="SourceGraphic" in2="BackgroundImageFix" result="shape"/>
<feGaussianBlur stdDeviation="150" result="effect1_foregroundBlur_479_473"/>
</filter>
<filter id="filter7_f_479_473" x="-284.692" y="4985.64" width="1157.81" height="981.141" filterUnits="userSpaceOnUse" color-interpolation-filters="sRGB">
<feFlood flood-opacity="0" result="BackgroundImageFix"/>
<feBlend mode="normal" in="SourceGraphic" in2="BackgroundImageFix" result="shape"/>
<feGaussianBlur stdDeviation="150" result="effect1_foregroundBlur_479_473"/>
</filter>
<filter id="filter8_f_479_473" x="-475.662" y="4971.26" width="1056.43" height="933.76" filterUnits="userSpaceOnUse" color-interpolation-filters="sRGB">
<feFlood flood-opacity="0" result="BackgroundImageFix"/>
<feBlend mode="normal" in="SourceGraphic" in2="BackgroundImageFix" result="shape"/>
<feGaussianBlur stdDeviation="125" result="effect1_foregroundBlur_479_473"/>
</filter>
<filter id="filter9_f_479_473" x="127.053" y="4921.6" width="931.745" height="872.528" filterUnits="userSpaceOnUse" color-interpolation-filters="sRGB">
<feFlood flood-opacity="0" result="BackgroundImageFix"/>
<feBlend mode="normal" in="SourceGraphic" in2="BackgroundImageFix" result="shape"/>
<feGaussianBlur stdDeviation="150" result="effect1_foregroundBlur_479_473"/>
</filter>
<filter id="filter10_f_479_473" x="-401.092" y="0.222168" width="1474.95" height="1221.96" filterUnits="userSpaceOnUse" color-interpolation-filters="sRGB">
<feFlood flood-opacity="0" result="BackgroundImageFix"/>
<feBlend mode="normal" in="SourceGraphic" in2="BackgroundImageFix" result="shape"/>
<feGaussianBlur stdDeviation="175" result="effect1_foregroundBlur_479_473"/>
</filter>
<filter id="filter11_f_479_473" x="-137.754" y="320.789" width="2124.68" height="1527.88" filterUnits="userSpaceOnUse" color-interpolation-filters="sRGB">
<feFlood flood-opacity="0" result="BackgroundImageFix"/>
<feBlend mode="normal" in="SourceGraphic" in2="BackgroundImageFix" result="shape"/>
<feGaussianBlur stdDeviation="125" result="effect1_foregroundBlur_479_473"/>
</filter>
<filter id="filter12_f_479_473" x="-1375.26" y="77.8538" width="3260" height="1992.36" filterUnits="userSpaceOnUse" color-interpolation-filters="sRGB">
<feFlood flood-opacity="0" result="BackgroundImageFix"/>
<feBlend mode="normal" in="SourceGraphic" in2="BackgroundImageFix" result="shape"/>
<feGaussianBlur stdDeviation="175" result="effect1_foregroundBlur_479_473"/>
</filter>
<filter id="filter13_f_479_473" x="-18.5547" y="776.342" width="1373" height="642" filterUnits="userSpaceOnUse" color-interpolation-filters="sRGB">
<feFlood flood-opacity="0" result="BackgroundImageFix"/>
<feBlend mode="normal" in="SourceGraphic" in2="BackgroundImageFix" result="shape"/>
<feGaussianBlur stdDeviation="100" result="effect1_foregroundBlur_479_473"/>
</filter>
<filter id="filter14_f_479_473" x="-669.646" y="1405.37" width="2638.53" height="1349.19" filterUnits="userSpaceOnUse" color-interpolation-filters="sRGB">
<feFlood flood-opacity="0" result="BackgroundImageFix"/>
<feBlend mode="normal" in="SourceGraphic" in2="BackgroundImageFix" result="shape"/>
<feGaussianBlur stdDeviation="125" result="effect1_foregroundBlur_479_473"/>
</filter>
<filter id="filter15_f_479_473" x="-794.495" y="1593.73" width="2738.53" height="1449.19" filterUnits="userSpaceOnUse" color-interpolation-filters="sRGB">
<feFlood flood-opacity="0" result="BackgroundImageFix"/>
<feBlend mode="normal" in="SourceGraphic" in2="BackgroundImageFix" result="shape"/>
<feGaussianBlur stdDeviation="150" result="effect1_foregroundBlur_479_473"/>
</filter>
<filter id="filter16_f_479_473" x="-454.518" y="1726.94" width="1561.06" height="841.399" filterUnits="userSpaceOnUse" color-interpolation-filters="sRGB">
<feFlood flood-opacity="0" result="BackgroundImageFix"/>
<feBlend mode="normal" in="SourceGraphic" in2="BackgroundImageFix" result="shape"/>
<feGaussianBlur stdDeviation="75" result="effect1_foregroundBlur_479_473"/>
</filter>
<linearGradient id="paint0_linear_479_473" x1="-72.7058" y1="5362.58" x2="154.919" y2="5560.21" gradientUnits="userSpaceOnUse">
<stop stop-color="#FF0095"/>
<stop offset="1" stop-color="#FFCDFF"/>
</linearGradient>
</defs>
</svg>
