<svg width="390" viewBox="0 0 390 9701" fill="none" xmlns="http://www.w3.org/2000/svg">
<g filter="url(#filter0_f_1340_497)">
<ellipse rx="437.219" ry="241.301" transform="matrix(0.942395 0.334501 0.334501 -0.942395 170.871 6593.12)" fill="#8349FF" fill-opacity="0.35"/>
</g>
<g opacity="0.5">
<g filter="url(#filter1_f_1340_497)">
<ellipse cx="491.384" cy="9404.2" rx="408.405" ry="226.668" transform="rotate(22.3747 491.384 9404.2)" fill="#0034EB"/>
</g>
<g filter="url(#filter2_f_1340_497)">
<ellipse cx="409.737" cy="9867.03" rx="1384.58" ry="372.11" transform="rotate(23.3308 409.737 9867.03)" fill="#00F3F9"/>
</g>
</g>
<g opacity="0.5">
<g filter="url(#filter3_f_1340_497)">
<ellipse rx="295.694" ry="163.193" transform="matrix(-0.916929 0.39905 0.39905 0.916929 108.213 7188.21)" fill="#8349FF"/>
</g>
<g filter="url(#filter4_f_1340_497)">
<path d="M-121.972 7205.11C-164.385 7185.53 -180.284 7161.07 -214.296 7129.04C-279.951 7067.22 -291.758 7008.55 -360.838 6950.58C-501.791 6832.31 -323.895 7358.08 -140.101 7366.85C-24.562 7372.36 229.513 7242.98 116.409 7218.75C71.2398 7209.07 44.4615 7228.31 -1.66712 7225.84C-49.2731 7223.29 -78.6893 7225.1 -121.972 7205.11Z" fill="url(#paint0_linear_1340_497)"/>
</g>
<g filter="url(#filter5_f_1340_497)">
<path d="M359.237 6957.51C422.854 6926.15 475.917 6925.68 545.214 6955.86C685.597 7016.98 244.641 7316.73 241.141 7162.56C238.935 7065.35 277.979 6997.55 359.237 6957.51Z" fill="#0013FF"/>
</g>
</g>
<g opacity="0.5">
<g filter="url(#filter6_f_1340_497)">
<ellipse rx="295.694" ry="163.193" transform="matrix(0.782404 -0.622771 -0.622771 -0.782404 84.0756 5680.51)" fill="#8349FF"/>
</g>
<g filter="url(#filter7_f_1340_497)">
<path d="M302.043 5604.61C348.08 5612.55 369.767 5632.06 410.909 5654.19C490.326 5696.91 516.917 5750.53 598.646 5788.64C765.409 5866.41 457.495 5404.6 277.693 5443.69C164.664 5468.27 -47.2679 5659 68.2536 5653.13C114.389 5650.79 135.276 5625.28 180.472 5615.73C227.116 5605.87 255.062 5596.51 302.043 5604.61Z" fill="url(#paint1_linear_1340_497)"/>
</g>
<g filter="url(#filter8_f_1340_497)">
<path d="M-98.6854 5968.32C-152.02 6015.07 -203.152 6029.26 -277.897 6018.05C-429.317 5995.35 -80.9678 5591.68 -37.6839 5739.7C-10.3926 5833.02 -30.5605 5908.61 -98.6854 5968.32Z" fill="#0013FF"/>
</g>
</g>
<g opacity="0.5">
<g filter="url(#filter9_f_1340_497)">
<path d="M482.598 2396.11C667.033 2063.97 1016.1 1728.62 1032.08 1593.34C1060.68 1351.12 398.906 1386.54 162.414 1642.7C-59.5011 1883.07 -286.685 3551.56 162.414 3142.13C401.342 2924.3 325.636 2678.77 482.598 2396.11Z" fill="#280075"/>
</g>
<g filter="url(#filter10_f_1340_497)">
<path d="M326.658 2226.33C511.093 1894.19 860.164 1558.84 876.14 1423.56C904.745 1181.34 242.966 1216.76 6.47344 1472.92C-215.441 1713.29 -442.625 3381.78 6.47337 2972.35C245.402 2754.52 169.696 2508.99 326.658 2226.33Z" fill="#CF00A3"/>
</g>
<g filter="url(#filter11_f_1340_497)">
<path d="M-10.145 2355.7C68.4564 2429.35 580.434 1982.48 770.544 1697.57C960.653 1412.67 512.939 1435 285.18 1674.85C95.6099 1874.49 -88.7464 2282.04 -10.145 2355.7Z" fill="#FF8993"/>
<path d="M-10.145 2355.7C68.4564 2429.35 580.434 1982.48 770.544 1697.57C960.653 1412.67 512.939 1435 285.18 1674.85C95.6099 1874.49 -88.7464 2282.04 -10.145 2355.7Z" stroke="#FF1D74" stroke-width="40"/>
</g>
</g>
<g opacity="0.25">
<g filter="url(#filter12_f_1340_497)">
<ellipse cx="507.334" cy="8498.88" rx="485.289" ry="322.882" fill="#FF4161"/>
</g>
<g filter="url(#filter13_f_1340_497)">
<ellipse rx="238.39" ry="126.944" transform="matrix(0.995133 -0.0985424 0.234119 0.972208 372.473 8435.11)" fill="#FFB39B"/>
</g>
<g filter="url(#filter14_f_1340_497)">
<ellipse rx="1029.54" ry="170.088" transform="matrix(0.998671 -0.0515343 0.124513 0.992218 173.355 8683.18)" fill="#FF90BA"/>
</g>
</g>
<defs>
<filter id="filter0_f_1340_497" x="-549.073" y="6022.71" width="1439.89" height="1140.81" filterUnits="userSpaceOnUse" color-interpolation-filters="sRGB">
<feFlood flood-opacity="0" result="BackgroundImageFix"/>
<feBlend mode="normal" in="SourceGraphic" in2="BackgroundImageFix" result="shape"/>
<feGaussianBlur stdDeviation="150" result="effect1_foregroundBlur_1340_497"/>
</filter>
<filter id="filter1_f_1340_497" x="-246.09" y="8793.22" width="1474.95" height="1221.96" filterUnits="userSpaceOnUse" color-interpolation-filters="sRGB">
<feFlood flood-opacity="0" result="BackgroundImageFix"/>
<feBlend mode="normal" in="SourceGraphic" in2="BackgroundImageFix" result="shape"/>
<feGaussianBlur stdDeviation="175" result="effect1_foregroundBlur_1340_497"/>
</filter>
<filter id="filter2_f_1340_497" x="-1220.26" y="8870.85" width="3260" height="1992.36" filterUnits="userSpaceOnUse" color-interpolation-filters="sRGB">
<feFlood flood-opacity="0" result="BackgroundImageFix"/>
<feBlend mode="normal" in="SourceGraphic" in2="BackgroundImageFix" result="shape"/>
<feGaussianBlur stdDeviation="175" result="effect1_foregroundBlur_1340_497"/>
</filter>
<filter id="filter3_f_1340_497" x="-470.692" y="6697.64" width="1157.81" height="981.142" filterUnits="userSpaceOnUse" color-interpolation-filters="sRGB">
<feFlood flood-opacity="0" result="BackgroundImageFix"/>
<feBlend mode="normal" in="SourceGraphic" in2="BackgroundImageFix" result="shape"/>
<feGaussianBlur stdDeviation="150" result="effect1_foregroundBlur_1340_497"/>
</filter>
<filter id="filter4_f_1340_497" x="-661.662" y="6683.26" width="1056.43" height="933.76" filterUnits="userSpaceOnUse" color-interpolation-filters="sRGB">
<feFlood flood-opacity="0" result="BackgroundImageFix"/>
<feBlend mode="normal" in="SourceGraphic" in2="BackgroundImageFix" result="shape"/>
<feGaussianBlur stdDeviation="125" result="effect1_foregroundBlur_1340_497"/>
</filter>
<filter id="filter5_f_1340_497" x="-58.9473" y="6633.6" width="931.745" height="872.528" filterUnits="userSpaceOnUse" color-interpolation-filters="sRGB">
<feFlood flood-opacity="0" result="BackgroundImageFix"/>
<feBlend mode="normal" in="SourceGraphic" in2="BackgroundImageFix" result="shape"/>
<feGaussianBlur stdDeviation="150" result="effect1_foregroundBlur_1340_497"/>
</filter>
<filter id="filter6_f_1340_497" x="-468.679" y="5156.41" width="1105.51" height="1048.21" filterUnits="userSpaceOnUse" color-interpolation-filters="sRGB">
<feFlood flood-opacity="0" result="BackgroundImageFix"/>
<feBlend mode="normal" in="SourceGraphic" in2="BackgroundImageFix" result="shape"/>
<feGaussianBlur stdDeviation="150" result="effect1_foregroundBlur_1340_497"/>
</filter>
<filter id="filter7_f_1340_497" x="-215.184" y="5191.34" width="1111.75" height="856.146" filterUnits="userSpaceOnUse" color-interpolation-filters="sRGB">
<feFlood flood-opacity="0" result="BackgroundImageFix"/>
<feBlend mode="normal" in="SourceGraphic" in2="BackgroundImageFix" result="shape"/>
<feGaussianBlur stdDeviation="125" result="effect1_foregroundBlur_1340_497"/>
</filter>
<filter id="filter8_f_1340_497" x="-615.793" y="5407.16" width="889.867" height="914.532" filterUnits="userSpaceOnUse" color-interpolation-filters="sRGB">
<feFlood flood-opacity="0" result="BackgroundImageFix"/>
<feBlend mode="normal" in="SourceGraphic" in2="BackgroundImageFix" result="shape"/>
<feGaussianBlur stdDeviation="150" result="effect1_foregroundBlur_1340_497"/>
</filter>
<filter id="filter9_f_1340_497" x="-346.06" y="1179.78" width="1629.04" height="2276.71" filterUnits="userSpaceOnUse" color-interpolation-filters="sRGB">
<feFlood flood-opacity="0" result="BackgroundImageFix"/>
<feBlend mode="normal" in="SourceGraphic" in2="BackgroundImageFix" result="shape"/>
<feGaussianBlur stdDeviation="125" result="effect1_foregroundBlur_1340_497"/>
</filter>
<filter id="filter10_f_1340_497" x="-552" y="960" width="1729.04" height="2376.71" filterUnits="userSpaceOnUse" color-interpolation-filters="sRGB">
<feFlood flood-opacity="0" result="BackgroundImageFix"/>
<feBlend mode="normal" in="SourceGraphic" in2="BackgroundImageFix" result="shape"/>
<feGaussianBlur stdDeviation="150" result="effect1_foregroundBlur_1340_497"/>
</filter>
<filter id="filter11_f_1340_497" x="-198.738" y="1319.43" width="1185.2" height="1214.34" filterUnits="userSpaceOnUse" color-interpolation-filters="sRGB">
<feFlood flood-opacity="0" result="BackgroundImageFix"/>
<feBlend mode="normal" in="SourceGraphic" in2="BackgroundImageFix" result="shape"/>
<feGaussianBlur stdDeviation="75" result="effect1_foregroundBlur_1340_497"/>
</filter>
<filter id="filter12_f_1340_497" x="-277.956" y="7876" width="1570.58" height="1245.76" filterUnits="userSpaceOnUse" color-interpolation-filters="sRGB">
<feFlood flood-opacity="0" result="BackgroundImageFix"/>
<feBlend mode="normal" in="SourceGraphic" in2="BackgroundImageFix" result="shape"/>
<feGaussianBlur stdDeviation="150" result="effect1_foregroundBlur_1340_497"/>
</filter>
<filter id="filter13_f_1340_497" x="-66.6357" y="8109.45" width="878.218" height="651.31" filterUnits="userSpaceOnUse" color-interpolation-filters="sRGB">
<feFlood flood-opacity="0" result="BackgroundImageFix"/>
<feBlend mode="normal" in="SourceGraphic" in2="BackgroundImageFix" result="shape"/>
<feGaussianBlur stdDeviation="100" result="effect1_foregroundBlur_1340_497"/>
</filter>
<filter id="filter14_f_1340_497" x="-1155.04" y="8206.22" width="2656.8" height="953.912" filterUnits="userSpaceOnUse" color-interpolation-filters="sRGB">
<feFlood flood-opacity="0" result="BackgroundImageFix"/>
<feBlend mode="normal" in="SourceGraphic" in2="BackgroundImageFix" result="shape"/>
<feGaussianBlur stdDeviation="150" result="effect1_foregroundBlur_1340_497"/>
</filter>
<linearGradient id="paint0_linear_1340_497" x1="-258.706" y1="7074.58" x2="-31.0805" y2="7272.21" gradientUnits="userSpaceOnUse">
<stop stop-color="#FF0095"/>
<stop offset="1" stop-color="#FFCDFF"/>
</linearGradient>
<linearGradient id="paint1_linear_1340_497" x1="467.901" y1="5695.3" x2="196.882" y2="5563.32" gradientUnits="userSpaceOnUse">
<stop stop-color="#FF0095"/>
<stop offset="1" stop-color="#FFCDFF"/>
</linearGradient>
</defs>
</svg>
