<svg width="51" height="51" viewBox="0 0 51 51" fill="none" xmlns="http://www.w3.org/2000/svg">
<g filter="url(#filter0_i_94_2823)">
<circle cx="25.4012" cy="25.4761" r="25.4012" fill="url(#paint0_linear_94_2823)"/>
</g>
<mask id="mask0_94_2823" style="mask-type:alpha" maskUnits="userSpaceOnUse" x="0" y="0" width="51" height="51">
<path d="M25.4089 50.9795C14.2912 50.9795 0.0141772 42.4609 0.015625 26.1695C0.0171352 9.1763 13.9015 0 25.4089 0C38.0289 0 50.996 10.1959 50.996 26.1695C50.996 40.3133 38.0817 50.9795 25.4089 50.9795Z" fill="url(#paint1_linear_94_2823)"/>
</mask>
<g mask="url(#mask0_94_2823)">
<g filter="url(#filter1_f_94_2823)">
<path d="M38.3192 12.4931C44.9689 19.0186 41.7057 33.0087 39.2428 39.188C31.8543 37.1612 18.4626 32.544 24.004 30.2897C29.5454 28.0355 29.0836 11.455 28.16 3.44653C28.7757 3.74314 31.6696 5.96772 38.3192 12.4931Z" fill="url(#paint2_linear_94_2823)"/>
</g>
<g filter="url(#filter2_f_94_2823)">
<path d="M11.2344 5.24487C10.8164 5.89788 10.4153 6.50716 10.0303 7.07805C8.05897 10.9555 6.95122 17.7406 5.78776 21.5132C4.40648 25.992 4.40632 30.2352 5.78768 34.0069C6.32435 35.4722 9.32802 44.929 7.16904 42.9646C3.1419 39.3005 -0.609894 30.8261 1.23189 22.1041C2.6313 15.477 4.90281 14.682 10.0303 7.07805C10.3994 6.35213 10.7987 5.72812 11.2344 5.24487Z" fill="#5390B8"/>
</g>
<g filter="url(#filter3_f_94_2823)">
<path d="M12.5802 4.79517C12.1668 5.4409 11.7816 6.0454 11.4222 6.61364C10.003 9.78919 10.2908 14.2714 9.15052 17.9689C7.76924 22.4478 7.76909 26.6909 9.15044 30.4626C9.68711 31.9279 13.2942 40.3632 10.5318 39.4203C5.20973 37.6037 3.16489 30.6983 5.00668 21.9763C6.40726 15.3436 6.57631 14.2739 11.4222 6.61364C11.7221 5.94254 12.0982 5.32981 12.5802 4.79517Z" fill="#DCE2E6"/>
</g>
<g filter="url(#filter4_f_94_2823)">
<path d="M8.0847 43.2343C7.71636 42.6686 8.3947 37.7786 8.54817 34.9498L20.5191 42.7289L29.7277 34.7141L37.0945 38.0143C39.6539 40.3716 45.1384 44.6095 32.0246 49.0789C23.5899 51.9535 10.5403 47.006 8.0847 43.2343Z" fill="#263DB4"/>
</g>
<g filter="url(#filter5_f_94_2823)">
<path d="M10.1486 36.8357C5.36012 30.0467 11.2229 13.7341 14.7528 6.42651C11.5298 24.1063 27.6448 32.5925 32.2491 35.657C26.724 38.4858 25.6496 43.7504 25.8031 46.0291C22.5801 45.7934 14.937 43.6247 10.1486 36.8357Z" fill="url(#paint3_linear_94_2823)"/>
</g>
<g filter="url(#filter6_if_94_2823)">
<path d="M39.6559 21.4223C39.2876 28.0227 34.5912 41.7736 32.2891 47.824C42.4185 46.8811 41.301 44.8631 43.6032 43.122C47.6349 40.0727 50.2345 32.6937 50.2345 24.3521C50.2345 15.8364 37.8699 2.44457 38.995 5.1326C39.5665 6.49817 40.1163 13.1717 39.6559 21.4223Z" fill="url(#paint4_linear_94_2823)"/>
</g>
</g>
<g style="mix-blend-mode:overlay" filter="url(#filter7_i_94_2823)">
<circle cx="25.4012" cy="25.4761" r="25.4012" fill="url(#paint5_linear_94_2823)"/>
</g>
<g style="mix-blend-mode:soft-light" filter="url(#filter8_i_94_2823)">
<circle cx="25.4012" cy="25.4761" r="25.4012" fill="url(#paint6_linear_94_2823)"/>
</g>
<defs>
<filter id="filter0_i_94_2823" x="0" y="-11.8797" width="50.8027" height="62.757" filterUnits="userSpaceOnUse" color-interpolation-filters="sRGB">
<feFlood flood-opacity="0" result="BackgroundImageFix"/>
<feBlend mode="normal" in="SourceGraphic" in2="BackgroundImageFix" result="shape"/>
<feColorMatrix in="SourceAlpha" type="matrix" values="0 0 0 0 0 0 0 0 0 0 0 0 0 0 0 0 0 0 127 0" result="hardAlpha"/>
<feOffset dy="-11.9546"/>
<feGaussianBlur stdDeviation="11.9546"/>
<feComposite in2="hardAlpha" operator="arithmetic" k2="-1" k3="1"/>
<feColorMatrix type="matrix" values="0 0 0 0 0.737255 0 0 0 0 0.615686 0 0 0 0 0.419608 0 0 0 1 0"/>
<feBlend mode="normal" in2="shape" result="effect1_innerShadow_94_2823"/>
</filter>
<filter id="filter1_f_94_2823" x="10.7407" y="-8.50809" width="43.4659" height="59.6507" filterUnits="userSpaceOnUse" color-interpolation-filters="sRGB">
<feFlood flood-opacity="0" result="BackgroundImageFix"/>
<feBlend mode="normal" in="SourceGraphic" in2="BackgroundImageFix" result="shape"/>
<feGaussianBlur stdDeviation="5.97731" result="effect1_foregroundBlur_94_2823"/>
</filter>
<filter id="filter2_f_94_2823" x="-11.2046" y="-6.70975" width="34.3936" height="61.8963" filterUnits="userSpaceOnUse" color-interpolation-filters="sRGB">
<feFlood flood-opacity="0" result="BackgroundImageFix"/>
<feBlend mode="normal" in="SourceGraphic" in2="BackgroundImageFix" result="shape"/>
<feGaussianBlur stdDeviation="5.97731" result="effect1_foregroundBlur_94_2823"/>
</filter>
<filter id="filter3_f_94_2823" x="-7.61088" y="-7.15946" width="32.1456" height="58.6077" filterUnits="userSpaceOnUse" color-interpolation-filters="sRGB">
<feFlood flood-opacity="0" result="BackgroundImageFix"/>
<feBlend mode="normal" in="SourceGraphic" in2="BackgroundImageFix" result="shape"/>
<feGaussianBlur stdDeviation="5.97731" result="effect1_foregroundBlur_94_2823"/>
</filter>
<filter id="filter4_f_94_2823" x="-3.97806" y="22.7595" width="56.3712" height="39.1335" filterUnits="userSpaceOnUse" color-interpolation-filters="sRGB">
<feFlood flood-opacity="0" result="BackgroundImageFix"/>
<feBlend mode="normal" in="SourceGraphic" in2="BackgroundImageFix" result="shape"/>
<feGaussianBlur stdDeviation="5.97731" result="effect1_foregroundBlur_94_2823"/>
</filter>
<filter id="filter5_f_94_2823" x="-3.61088" y="-5.52811" width="47.8145" height="63.5119" filterUnits="userSpaceOnUse" color-interpolation-filters="sRGB">
<feFlood flood-opacity="0" result="BackgroundImageFix"/>
<feBlend mode="normal" in="SourceGraphic" in2="BackgroundImageFix" result="shape"/>
<feGaussianBlur stdDeviation="5.97731" result="effect1_foregroundBlur_94_2823"/>
</filter>
<filter id="filter6_if_94_2823" x="20.3344" y="-19.9509" width="41.8546" height="79.7295" filterUnits="userSpaceOnUse" color-interpolation-filters="sRGB">
<feFlood flood-opacity="0" result="BackgroundImageFix"/>
<feBlend mode="normal" in="SourceGraphic" in2="BackgroundImageFix" result="shape"/>
<feColorMatrix in="SourceAlpha" type="matrix" values="0 0 0 0 0 0 0 0 0 0 0 0 0 0 0 0 0 0 127 0" result="hardAlpha"/>
<feOffset dy="-37.0997"/>
<feGaussianBlur stdDeviation="12.3666"/>
<feComposite in2="hardAlpha" operator="arithmetic" k2="-1" k3="1"/>
<feColorMatrix type="matrix" values="0 0 0 0 0.294118 0 0 0 0 0.380392 0 0 0 0 0.835294 0 0 0 1 0"/>
<feBlend mode="normal" in2="shape" result="effect1_innerShadow_94_2823"/>
<feGaussianBlur stdDeviation="5.97731" result="effect2_foregroundBlur_94_2823"/>
</filter>
<filter id="filter7_i_94_2823" x="0" y="-179.244" width="50.8027" height="230.122" filterUnits="userSpaceOnUse" color-interpolation-filters="sRGB">
<feFlood flood-opacity="0" result="BackgroundImageFix"/>
<feBlend mode="normal" in="SourceGraphic" in2="BackgroundImageFix" result="shape"/>
<feColorMatrix in="SourceAlpha" type="matrix" values="0 0 0 0 0 0 0 0 0 0 0 0 0 0 0 0 0 0 127 0" result="hardAlpha"/>
<feOffset dy="-179.319"/>
<feGaussianBlur stdDeviation="89.6597"/>
<feComposite in2="hardAlpha" operator="arithmetic" k2="-1" k3="1"/>
<feColorMatrix type="matrix" values="0 0 0 0 0.28886 0 0 0 0 0.223105 0 0 0 0 0.145914 0 0 0 1 0"/>
<feBlend mode="normal" in2="shape" result="effect1_innerShadow_94_2823"/>
</filter>
<filter id="filter8_i_94_2823" x="0" y="0.0749512" width="50.8027" height="63.1689" filterUnits="userSpaceOnUse" color-interpolation-filters="sRGB">
<feFlood flood-opacity="0" result="BackgroundImageFix"/>
<feBlend mode="normal" in="SourceGraphic" in2="BackgroundImageFix" result="shape"/>
<feColorMatrix in="SourceAlpha" type="matrix" values="0 0 0 0 0 0 0 0 0 0 0 0 0 0 0 0 0 0 127 0" result="hardAlpha"/>
<feOffset dy="61.8328"/>
<feGaussianBlur stdDeviation="6.18328"/>
<feComposite in2="hardAlpha" operator="arithmetic" k2="-1" k3="1"/>
<feColorMatrix type="matrix" values="0 0 0 0 0 0 0 0 0 0 0 0 0 0 0 0 0 0 1 0"/>
<feBlend mode="normal" in2="shape" result="effect1_innerShadow_94_2823"/>
</filter>
<linearGradient id="paint0_linear_94_2823" x1="25.4012" y1="0.0749512" x2="25.4012" y2="50.8773" gradientUnits="userSpaceOnUse">
<stop stop-color="#EAF2F8"/>
<stop offset="1" stop-color="#15A1FC"/>
</linearGradient>
<linearGradient id="paint1_linear_94_2823" x1="25.3874" y1="-19.0323" x2="25.3874" y2="50.9795" gradientUnits="userSpaceOnUse">
<stop stop-color="#D9ECF9"/>
<stop offset="1" stop-color="#15A1FC"/>
</linearGradient>
<linearGradient id="paint2_linear_94_2823" x1="43.3989" y1="37.4084" x2="31.6771" y2="28.0498" gradientUnits="userSpaceOnUse">
<stop stop-color="#15A1FC"/>
<stop offset="1" stop-color="#D3EBFA"/>
</linearGradient>
<linearGradient id="paint3_linear_94_2823" x1="15.2502" y1="18.213" x2="17.0916" y2="41.7115" gradientUnits="userSpaceOnUse">
<stop stop-color="#DFF2FF"/>
<stop offset="0.849561" stop-color="#B8E2FE"/>
</linearGradient>
<linearGradient id="paint4_linear_94_2823" x1="41.4976" y1="1.3852" x2="41.4472" y2="47.8241" gradientUnits="userSpaceOnUse">
<stop stop-color="#90CDF4"/>
<stop offset="1" stop-color="#F5FBFF"/>
</linearGradient>
<linearGradient id="paint5_linear_94_2823" x1="25.4012" y1="0.0749512" x2="25.4012" y2="50.8773" gradientUnits="userSpaceOnUse">
<stop stop-color="#888580"/>
<stop offset="1" stop-color="#7D7D7D"/>
</linearGradient>
<linearGradient id="paint6_linear_94_2823" x1="25.4012" y1="0.0749512" x2="25.4012" y2="50.8773" gradientUnits="userSpaceOnUse">
<stop stop-color="#888580"/>
<stop offset="1" stop-color="#7D7D7D"/>
</linearGradient>
</defs>
</svg>
