<svg width="1512" viewBox="0 0 1512 10845" xmlns="http://www.w3.org/2000/svg" >
<g filter="url(#filter0_f_1325_479)">
<ellipse rx="554.539" ry="306.049" transform="matrix(0.942395 0.334501 0.334501 -0.942395 1115.97 6564.91)" fill="#8349FF" fill-opacity="0.35"/>
</g>
<g filter="url(#filter1_f_1325_479)">
<ellipse rx="418.634" ry="231.044" transform="matrix(0.782404 -0.622771 -0.622771 -0.782404 577.744 5502.78)" fill="#8349FF"/>
</g>
<g filter="url(#filter2_f_1325_479)">
<path d="M886.335 5395.32C951.513 5406.56 982.218 5434.18 1040.47 5465.51C1152.9 5525.99 1190.55 5601.91 1306.26 5655.86C1542.36 5765.96 1106.42 5112.14 851.862 5167.5C691.839 5202.29 391.792 5472.32 555.344 5464.01C620.661 5460.7 650.232 5424.58 714.22 5411.06C780.257 5397.1 819.822 5383.85 886.335 5395.32Z" fill="url(#paint0_linear_1325_479)"/>
</g>
<g filter="url(#filter3_f_1325_479)">
<path d="M318.998 5910.25C243.489 5976.44 171.097 5996.53 65.2748 5980.66C-149.101 5948.51 344.082 5377.01 405.362 5586.57C444 5718.7 415.447 5825.71 318.998 5910.25Z" fill="#0013FF"/>
</g>
<g filter="url(#filter4_f_1325_479)">
<ellipse cx="463.939" cy="10353.2" rx="408.405" ry="226.668" transform="rotate(22.3747 463.939 10353.2)" fill="#0034EB"/>
</g>
<g filter="url(#filter5_f_1325_479)">
<ellipse cx="1052.14" cy="10826.7" rx="918.493" ry="283" transform="rotate(29.3952 1052.14 10826.7)" fill="#0A34CD"/>
</g>
<g filter="url(#filter6_f_1325_479)">
<ellipse cx="382.291" cy="10816" rx="1384.58" ry="372.11" transform="rotate(23.3308 382.291 10816)" fill="#00F3F9"/>
</g>
<g filter="url(#filter7_f_1325_479)">
    <ellipse cx="835.334" cy="9380.88" rx="485.289" ry="322.882" fill="#f23d5b70"/>
</g>
<g filter="url(#filter8_f_1325_479)">
<ellipse rx="1029.54" ry="170.088" transform="matrix(0.998671 -0.0515343 0.124513 0.992218 501.355 9565.18)" fill="#FF90BA80"/>
</g>
<g filter="url(#filter9_f_1325_479)">
<ellipse rx="295.694" ry="163.193" transform="matrix(-0.916929 0.39905 0.39905 0.916929 294.212 7644.21)" fill="#8349FF"/>
</g>
<g filter="url(#filter10_f_1325_479)">
<path d="M64.0277 7661.11C21.6144 7641.53 5.71536 7617.07 -28.2966 7585.04C-93.9511 7523.22 -105.759 7464.55 -174.838 7406.58C-315.791 7288.31 -137.895 7814.08 45.8989 7822.85C161.438 7828.36 415.513 7698.98 302.409 7674.75C257.24 7665.07 230.461 7684.31 184.333 7681.84C136.727 7679.29 107.311 7681.1 64.0277 7661.11Z" fill="url(#paint1_linear_1325_479)"/>
</g>
<g filter="url(#filter11_f_1325_479)">
<path d="M545.237 7413.51C608.854 7382.15 661.917 7381.68 731.214 7411.86C871.597 7472.98 430.641 7772.73 427.141 7618.56C424.935 7521.35 463.979 7453.55 545.237 7413.51Z" fill="#0013FF"/>
</g>
<g filter="url(#filter12_f_1325_479)">
<ellipse cx="336.382" cy="670.203" rx="408.405" ry="226.668" transform="rotate(22.3747 336.382 670.203)" fill="#0034EB"/>
</g>
<g filter="url(#filter13_f_1325_479)">
<ellipse cx="924.586" cy="1143.73" rx="918.493" ry="283" transform="rotate(29.3952 924.586 1143.73)" fill="#0A34CD"/>
</g>
<g filter="url(#filter14_f_1325_479)">
<ellipse cx="254.739" cy="1133.03" rx="1384.58" ry="372.11" transform="rotate(23.3308 254.739 1133.03)" fill="#00F3F9"/>
</g>
<g filter="url(#filter15_f_1325_479)">
<ellipse cx="667.945" cy="1156.34" rx="486.5" ry="121" fill="#81FFD9"/>
</g>
<g filter="url(#filter16_f_1325_479)">
<path d="M706.698 1848.69C295.031 1855.56 -208.867 1709.66 -344.495 1767.97C-587.326 1872.37 -195.48 2474.3 173.088 2557.45C518.937 2635.48 2208.01 1944.59 1580.38 1744.95C1246.47 1638.74 1057.05 1842.84 706.698 1848.69Z" fill="#280075"/>
</g>
<g filter="url(#filter17_f_1325_479)">
<path d="M631.849 2087.05C220.182 2093.92 -283.715 1948.02 -419.343 2006.33C-662.175 2110.73 -270.329 2712.65 98.2393 2795.81C444.089 2873.84 2133.16 2182.95 1505.53 1983.31C1171.62 1877.1 982.198 2081.2 631.849 2087.05Z" fill="#CF00A3"/>
</g>
<g filter="url(#filter19_f_1325_479)">
<ellipse rx="238.39" ry="126.944" transform="matrix(0.995133 -0.0985424 0.234119 0.972208 700.473 9317.11)" fill="#FFB39B80"/>
</g>
<g filter="url(#filter20_f_1325_479)">
<ellipse cx="795.498" cy="10839.3" rx="486.5" ry="121" fill="#81FFD9"/>
</g>
<defs>
<filter id="filter0_f_1325_479" x="283.34" y="5921.95" width="1665.26" height="1285.92" filterUnits="userSpaceOnUse" color-interpolation-filters="sRGB">
<feFlood flood-opacity="0" result="BackgroundImageFix"/>
<feBlend mode="normal" in="SourceGraphic" in2="BackgroundImageFix" result="shape"/>
<feGaussianBlur stdDeviation="150" result="effect1_foregroundBlur_1325_479"/>
</filter>
<filter id="filter1_f_1325_479" x="-80.0983" y="4885.49" width="1315.68" height="1234.56" filterUnits="userSpaceOnUse" color-interpolation-filters="sRGB">
<feFlood flood-opacity="0" result="BackgroundImageFix"/>
<feBlend mode="normal" in="SourceGraphic" in2="BackgroundImageFix" result="shape"/>
<feGaussianBlur stdDeviation="150" result="effect1_foregroundBlur_1325_479"/>
</filter>
<filter id="filter2_f_1325_479" x="258.004" y="4914.16" width="1366.1" height="1004.22" filterUnits="userSpaceOnUse" color-interpolation-filters="sRGB">
<feFlood flood-opacity="0" result="BackgroundImageFix"/>
<feBlend mode="normal" in="SourceGraphic" in2="BackgroundImageFix" result="shape"/>
<feGaussianBlur stdDeviation="125" result="effect1_foregroundBlur_1325_479"/>
</filter>
<filter id="filter3_f_1325_479" x="-288.376" y="5240.5" width="1010.39" height="1045.3" filterUnits="userSpaceOnUse" color-interpolation-filters="sRGB">
<feFlood flood-opacity="0" result="BackgroundImageFix"/>
<feBlend mode="normal" in="SourceGraphic" in2="BackgroundImageFix" result="shape"/>
<feGaussianBlur stdDeviation="150" result="effect1_foregroundBlur_1325_479"/>
</filter>
<filter id="filter4_f_1325_479" x="-273.535" y="9742.22" width="1474.95" height="1221.96" filterUnits="userSpaceOnUse" color-interpolation-filters="sRGB">
<feFlood flood-opacity="0" result="BackgroundImageFix"/>
<feBlend mode="normal" in="SourceGraphic" in2="BackgroundImageFix" result="shape"/>
<feGaussianBlur stdDeviation="175" result="effect1_foregroundBlur_1325_479"/>
</filter>
<filter id="filter5_f_1325_479" x="-10.1978" y="10062.8" width="2124.68" height="1527.88" filterUnits="userSpaceOnUse" color-interpolation-filters="sRGB">
<feFlood flood-opacity="0" result="BackgroundImageFix"/>
<feBlend mode="normal" in="SourceGraphic" in2="BackgroundImageFix" result="shape"/>
<feGaussianBlur stdDeviation="125" result="effect1_foregroundBlur_1325_479"/>
</filter>
<filter id="filter6_f_1325_479" x="-1247.71" y="9819.85" width="3260" height="1992.36" filterUnits="userSpaceOnUse" color-interpolation-filters="sRGB">
<feFlood flood-opacity="0" result="BackgroundImageFix"/>
<feBlend mode="normal" in="SourceGraphic" in2="BackgroundImageFix" result="shape"/>
<feGaussianBlur stdDeviation="175" result="effect1_foregroundBlur_1325_479"/>
</filter>
<filter id="filter7_f_1325_479" x="50.0442" y="8758" width="1570.58" height="1245.76" filterUnits="userSpaceOnUse" color-interpolation-filters="sRGB">
<feFlood flood-opacity="0" result="BackgroundImageFix"/>
<feBlend mode="normal" in="SourceGraphic" in2="BackgroundImageFix" result="shape"/>
<feGaussianBlur stdDeviation="150" result="effect1_foregroundBlur_1325_479"/>
</filter>
<filter id="filter8_f_1325_479" x="-827.044" y="9088.22" width="2656.8" height="953.912" filterUnits="userSpaceOnUse" color-interpolation-filters="sRGB">
<feFlood flood-opacity="0" result="BackgroundImageFix"/>
<feBlend mode="normal" in="SourceGraphic" in2="BackgroundImageFix" result="shape"/>
<feGaussianBlur stdDeviation="150" result="effect1_foregroundBlur_1325_479"/>
</filter>
<filter id="filter9_f_1325_479" x="-284.693" y="7153.64" width="1157.81" height="981.142" filterUnits="userSpaceOnUse" color-interpolation-filters="sRGB">
<feFlood flood-opacity="0" result="BackgroundImageFix"/>
<feBlend mode="normal" in="SourceGraphic" in2="BackgroundImageFix" result="shape"/>
<feGaussianBlur stdDeviation="150" result="effect1_foregroundBlur_1325_479"/>
</filter>
<filter id="filter10_f_1325_479" x="-475.662" y="7139.26" width="1056.43" height="933.76" filterUnits="userSpaceOnUse" color-interpolation-filters="sRGB">
<feFlood flood-opacity="0" result="BackgroundImageFix"/>
<feBlend mode="normal" in="SourceGraphic" in2="BackgroundImageFix" result="shape"/>
<feGaussianBlur stdDeviation="125" result="effect1_foregroundBlur_1325_479"/>
</filter>
<filter id="filter11_f_1325_479" x="127.053" y="7089.6" width="931.745" height="872.528" filterUnits="userSpaceOnUse" color-interpolation-filters="sRGB">
<feFlood flood-opacity="0" result="BackgroundImageFix"/>
<feBlend mode="normal" in="SourceGraphic" in2="BackgroundImageFix" result="shape"/>
<feGaussianBlur stdDeviation="150" result="effect1_foregroundBlur_1325_479"/>
</filter>
<filter id="filter12_f_1325_479" x="-401.093" y="59.2224" width="1474.95" height="1221.96" filterUnits="userSpaceOnUse" color-interpolation-filters="sRGB">
<feFlood flood-opacity="0" result="BackgroundImageFix"/>
<feBlend mode="normal" in="SourceGraphic" in2="BackgroundImageFix" result="shape"/>
<feGaussianBlur stdDeviation="175" result="effect1_foregroundBlur_1325_479"/>
</filter>
<filter id="filter13_f_1325_479" x="-137.755" y="379.79" width="2124.68" height="1527.88" filterUnits="userSpaceOnUse" color-interpolation-filters="sRGB">
<feFlood flood-opacity="0" result="BackgroundImageFix"/>
<feBlend mode="normal" in="SourceGraphic" in2="BackgroundImageFix" result="shape"/>
<feGaussianBlur stdDeviation="125" result="effect1_foregroundBlur_1325_479"/>
</filter>
<filter id="filter14_f_1325_479" x="-1375.26" y="136.854" width="3260" height="1992.36" filterUnits="userSpaceOnUse" color-interpolation-filters="sRGB">
<feFlood flood-opacity="0" result="BackgroundImageFix"/>
<feBlend mode="normal" in="SourceGraphic" in2="BackgroundImageFix" result="shape"/>
<feGaussianBlur stdDeviation="175" result="effect1_foregroundBlur_1325_479"/>
</filter>
<filter id="filter15_f_1325_479" x="-18.5548" y="835.342" width="1373" height="642" filterUnits="userSpaceOnUse" color-interpolation-filters="sRGB">
<feFlood flood-opacity="0" result="BackgroundImageFix"/>
<feBlend mode="normal" in="SourceGraphic" in2="BackgroundImageFix" result="shape"/>
<feGaussianBlur stdDeviation="100" result="effect1_foregroundBlur_1325_479"/>
</filter>
<filter id="filter16_f_1325_479" x="-669.646" y="1464.37" width="2638.53" height="1349.19" filterUnits="userSpaceOnUse" color-interpolation-filters="sRGB">
<feFlood flood-opacity="0" result="BackgroundImageFix"/>
<feBlend mode="normal" in="SourceGraphic" in2="BackgroundImageFix" result="shape"/>
<feGaussianBlur stdDeviation="125" result="effect1_foregroundBlur_1325_479"/>
</filter>
<filter id="filter17_f_1325_479" x="-794.495" y="1652.73" width="2738.53" height="1449.19" filterUnits="userSpaceOnUse" color-interpolation-filters="sRGB">
<feFlood flood-opacity="0" result="BackgroundImageFix"/>
<feBlend mode="normal" in="SourceGraphic" in2="BackgroundImageFix" result="shape"/>
<feGaussianBlur stdDeviation="150" result="effect1_foregroundBlur_1325_479"/>
</filter>
<filter id="filter18_f_1325_479" x="-454.519" y="1785.94" width="1561.06" height="841.399" filterUnits="userSpaceOnUse" color-interpolation-filters="sRGB">
<feFlood flood-opacity="0" result="BackgroundImageFix"/>
<feBlend mode="normal" in="SourceGraphic" in2="BackgroundImageFix" result="shape"/>
<feGaussianBlur stdDeviation="75" result="effect1_foregroundBlur_1325_479"/>
</filter>
<filter id="filter19_f_1325_479" x="261.364" y="8991.45" width="878.218" height="651.31" filterUnits="userSpaceOnUse" color-interpolation-filters="sRGB">
<feFlood flood-opacity="0" result="BackgroundImageFix"/>
<feBlend mode="normal" in="SourceGraphic" in2="BackgroundImageFix" result="shape"/>
<feGaussianBlur stdDeviation="100" result="effect1_foregroundBlur_1325_479"/>
</filter>
<filter id="filter20_f_1325_479" x="108.998" y="10518.3" width="1373" height="642" filterUnits="userSpaceOnUse" color-interpolation-filters="sRGB">
<feFlood flood-opacity="0" result="BackgroundImageFix"/>
<feBlend mode="normal" in="SourceGraphic" in2="BackgroundImageFix" result="shape"/>
<feGaussianBlur stdDeviation="100" result="effect1_foregroundBlur_1325_479"/>
</filter>
<linearGradient id="paint0_linear_1325_479" x1="1121.15" y1="5523.72" x2="737.452" y2="5336.86" gradientUnits="userSpaceOnUse">
<stop stop-color="#FF0095"/>
<stop offset="1" stop-color="#FFCDFF"/>
</linearGradient>
<linearGradient id="paint1_linear_1325_479" x1="-72.7059" y1="7530.58" x2="154.919" y2="7728.21" gradientUnits="userSpaceOnUse">
<stop stop-color="#FF0095"/>
<stop offset="1" stop-color="#FFCDFF"/>
</linearGradient>
</defs>
</svg>
