<svg xmlns="http://www.w3.org/2000/svg" width="248" height="54" viewBox="0 0 248 54" fill="none">
<rect x="0.449829" y="-0.000366211" width="247" height="54" rx="8" fill="url(#paint0_linear_452_3283)"/>
<path d="M18.3538 36.2596C17.0885 36.2596 15.9792 36.0256 15.0258 35.5576C14.0725 35.0723 13.3272 34.405 12.7898 33.5556C12.2698 32.689 12.0098 31.6836 12.0098 30.5396V22.4796C12.0098 21.3183 12.2698 20.313 12.7898 19.4636C13.3272 18.6143 14.0725 17.9556 15.0258 17.4876C15.9792 17.0023 17.0885 16.7596 18.3538 16.7596C19.6365 16.7596 20.7458 17.0023 21.6818 17.4876C22.6352 17.9556 23.3718 18.6143 23.8918 19.4636C24.4292 20.313 24.6978 21.3183 24.6978 22.4796H20.7978C20.7978 21.717 20.5812 21.1363 20.1478 20.7376C19.7318 20.339 19.1338 20.1396 18.3538 20.1396C17.5738 20.1396 16.9672 20.339 16.5338 20.7376C16.1178 21.1363 15.9098 21.717 15.9098 22.4796V30.5396C15.9098 31.285 16.1178 31.8656 16.5338 32.2816C16.9672 32.6803 17.5738 32.8796 18.3538 32.8796C19.1338 32.8796 19.7318 32.6803 20.1478 32.2816C20.5812 31.8656 20.7978 31.285 20.7978 30.5396H24.6978C24.6978 31.6836 24.4292 32.689 23.8918 33.5556C23.3718 34.405 22.6352 35.0723 21.6818 35.5576C20.7458 36.0256 19.6365 36.2596 18.3538 36.2596ZM39.2997 36.2596C38.0343 36.2596 36.9337 36.0256 35.9977 35.5576C35.0617 35.0723 34.3337 34.405 33.8137 33.5556C33.311 32.689 33.0597 31.6836 33.0597 30.5396V22.4796C33.0597 21.3356 33.311 20.339 33.8137 19.4896C34.3337 18.623 35.0617 17.9556 35.9977 17.4876C36.9337 17.0023 38.0343 16.7596 39.2997 16.7596C40.5823 16.7596 41.683 17.0023 42.6017 17.4876C43.5377 17.9556 44.257 18.623 44.7597 19.4896C45.2797 20.339 45.5397 21.3356 45.5397 22.4796V30.5396C45.5397 31.6836 45.2797 32.689 44.7597 33.5556C44.257 34.405 43.5377 35.0723 42.6017 35.5576C41.683 36.0256 40.5823 36.2596 39.2997 36.2596ZM39.2997 32.8796C40.8597 32.8796 41.6397 32.0996 41.6397 30.5396V22.4796C41.6397 20.9196 40.8597 20.1396 39.2997 20.1396C37.7397 20.1396 36.9597 20.9196 36.9597 22.4796V30.5396C36.9597 32.0996 37.7397 32.8796 39.2997 32.8796ZM53.6415 35.9996V17.0196H58.0355L59.7255 22.9996C59.9162 23.6236 60.0548 24.1696 60.1415 24.6376C60.2455 25.1056 60.3062 25.435 60.3235 25.6256C60.3408 25.435 60.3928 25.1056 60.4795 24.6376C60.5835 24.1696 60.7222 23.6236 60.8955 22.9996L62.6375 17.0196H67.0575V35.9996H63.4955V28.7196C63.4955 26.813 63.5648 25.1056 63.7035 23.5976C63.8595 22.0896 64.0068 20.677 64.1455 19.3596L61.9355 27.9396H58.6855L56.4755 19.6716C56.6315 20.7983 56.7875 22.0896 56.9435 23.5456C57.1168 25.0016 57.2035 26.7263 57.2035 28.7196V35.9996H53.6415ZM75.6794 35.9996V32.4896H79.4494V20.5296H75.6794V17.0196H87.1194V20.5296H83.3494V32.4896H87.1194V35.9996H75.6794ZM96.2092 35.9996V17.0196H100.759L105.673 31.7096C105.621 31.0683 105.561 30.3316 105.491 29.4996C105.422 28.6503 105.361 27.8096 105.309 26.9776C105.275 26.1283 105.257 25.409 105.257 24.8196V17.0196H108.689V35.9996H104.139L99.2772 21.3096C99.3292 21.8643 99.3812 22.523 99.4332 23.2856C99.4852 24.0483 99.5285 24.8196 99.5632 25.5996C99.6152 26.3796 99.6412 27.073 99.6412 27.6796V35.9996H96.2092ZM123.603 36.2596C122.338 36.2596 121.228 36.0256 120.275 35.5576C119.322 35.0723 118.576 34.405 118.039 33.5556C117.519 32.689 117.259 31.6836 117.259 30.5396V22.4796C117.259 21.3183 117.519 20.313 118.039 19.4636C118.576 18.6143 119.322 17.9556 120.275 17.4876C121.228 17.0023 122.338 16.7596 123.603 16.7596C124.886 16.7596 125.995 17.0023 126.931 17.4876C127.884 17.9556 128.621 18.6143 129.141 19.4636C129.678 20.313 129.947 21.3183 129.947 22.4796H126.047C126.047 21.717 125.83 21.1363 125.397 20.7376C124.981 20.339 124.383 20.1396 123.603 20.1396C122.823 20.1396 122.216 20.339 121.783 20.7376C121.367 21.1363 121.159 21.717 121.159 22.4796V30.5396C121.159 31.285 121.367 31.8656 121.783 32.2816C122.216 32.6803 122.823 32.8796 123.603 32.8796C124.383 32.8796 124.981 32.6803 125.397 32.2816C125.83 31.8656 126.047 31.285 126.047 30.5396V28.9016H123.239V25.5996H129.947V30.5396C129.947 31.6836 129.678 32.689 129.141 33.5556C128.621 34.405 127.884 35.0723 126.931 35.5576C125.995 36.0256 124.886 36.2596 123.603 36.2596ZM165.599 36.2596C164.264 36.2596 163.103 36.0343 162.115 35.5836C161.127 35.133 160.364 34.5003 159.827 33.6856C159.289 32.871 159.021 31.909 159.021 30.7996H162.921C162.921 31.441 163.163 31.9523 163.649 32.3336C164.151 32.6976 164.827 32.8796 165.677 32.8796C166.491 32.8796 167.124 32.6976 167.575 32.3336C168.043 31.9696 168.277 31.467 168.277 30.8256C168.277 30.271 168.103 29.7943 167.757 29.3956C167.41 28.997 166.925 28.7283 166.301 28.5896L164.377 28.1476C162.765 27.7663 161.508 27.0643 160.607 26.0416C159.723 25.0016 159.281 23.7363 159.281 22.2456C159.281 20.5816 159.844 19.2556 160.971 18.2676C162.097 17.2623 163.623 16.7596 165.547 16.7596C167.488 16.7596 169.022 17.245 170.149 18.2156C171.293 19.169 171.865 20.4603 171.865 22.0896H167.965C167.965 21.483 167.748 21.0063 167.315 20.6596C166.899 20.313 166.292 20.1396 165.495 20.1396C164.749 20.1396 164.177 20.313 163.779 20.6596C163.38 21.0063 163.181 21.5176 163.181 22.1936C163.181 22.6963 163.345 23.147 163.675 23.5456C164.021 23.927 164.515 24.187 165.157 24.3256L167.055 24.7676C168.736 25.149 170.01 25.8423 170.877 26.8476C171.743 27.8356 172.177 29.101 172.177 30.6436C172.177 31.753 171.899 32.7323 171.345 33.5816C170.807 34.431 170.045 35.0896 169.057 35.5576C168.086 36.0256 166.933 36.2596 165.599 36.2596ZM186.649 36.2596C185.383 36.2596 184.283 36.0256 183.347 35.5576C182.411 35.0723 181.683 34.405 181.163 33.5556C180.66 32.689 180.409 31.6836 180.409 30.5396V22.4796C180.409 21.3356 180.66 20.339 181.163 19.4896C181.683 18.623 182.411 17.9556 183.347 17.4876C184.283 17.0023 185.383 16.7596 186.649 16.7596C187.931 16.7596 189.032 17.0023 189.951 17.4876C190.887 17.9556 191.606 18.623 192.109 19.4896C192.629 20.339 192.889 21.3356 192.889 22.4796V30.5396C192.889 31.6836 192.629 32.689 192.109 33.5556C191.606 34.405 190.887 35.0723 189.951 35.5576C189.032 36.0256 187.931 36.2596 186.649 36.2596ZM186.649 32.8796C188.209 32.8796 188.989 32.0996 188.989 30.5396V22.4796C188.989 20.9196 188.209 20.1396 186.649 20.1396C185.089 20.1396 184.309 20.9196 184.309 22.4796V30.5396C184.309 32.0996 185.089 32.8796 186.649 32.8796ZM207.698 36.2596C206.433 36.2596 205.332 36.0256 204.396 35.5576C203.46 35.0723 202.732 34.405 202.212 33.5556C201.71 32.689 201.458 31.6836 201.458 30.5396V22.4796C201.458 21.3356 201.71 20.339 202.212 19.4896C202.732 18.623 203.46 17.9556 204.396 17.4876C205.332 17.0023 206.433 16.7596 207.698 16.7596C208.981 16.7596 210.082 17.0023 211 17.4876C211.936 17.9556 212.656 18.623 213.158 19.4896C213.678 20.339 213.938 21.3356 213.938 22.4796V30.5396C213.938 31.6836 213.678 32.689 213.158 33.5556C212.656 34.405 211.936 35.0723 211 35.5576C210.082 36.0256 208.981 36.2596 207.698 36.2596ZM207.698 32.8796C209.258 32.8796 210.038 32.0996 210.038 30.5396V22.4796C210.038 20.9196 209.258 20.1396 207.698 20.1396C206.138 20.1396 205.358 20.9196 205.358 22.4796V30.5396C205.358 32.0996 206.138 32.8796 207.698 32.8796ZM222.508 35.9996V17.0196H227.058L231.972 31.7096C231.92 31.0683 231.86 30.3316 231.79 29.4996C231.721 28.6503 231.66 27.8096 231.608 26.9776C231.574 26.1283 231.556 25.409 231.556 24.8196V17.0196H234.988V35.9996H230.438L225.576 21.3096C225.628 21.8643 225.68 22.523 225.732 23.2856C225.784 24.0483 225.828 24.8196 225.862 25.5996C225.914 26.3796 225.94 27.073 225.94 27.6796V35.9996H222.508Z" fill="#0D0030"/>
<defs>
<linearGradient id="paint0_linear_452_3283" x1="237.668" y1="42.2605" x2="0.449826" y2="42.2605" gradientUnits="userSpaceOnUse">
<stop stop-color="#01F5FF"/>
<stop offset="1" stop-color="#01FEB6"/>
</linearGradient>
</defs>
</svg>